<?xml version="1.0" encoding="UTF-8" standalone="no"?>
<!-- Created with Inkscape (http://www.inkscape.org/) -->

<svg
   xmlns:dc="http://purl.org/dc/elements/1.1/"
   xmlns:cc="http://creativecommons.org/ns#"
   xmlns:rdf="http://www.w3.org/1999/02/22-rdf-syntax-ns#"
   xmlns:svg="http://www.w3.org/2000/svg"
   xmlns="http://www.w3.org/2000/svg"
   xmlns:xlink="http://www.w3.org/1999/xlink"
   xmlns:sodipodi="http://sodipodi.sourceforge.net/DTD/sodipodi-0.dtd"
   xmlns:inkscape="http://www.inkscape.org/namespaces/inkscape"
   width="131.01221"
   height="38.3167"
   id="svg4370"
   version="1.1"
   inkscape:version="0.48.0 r9654"
   sodipodi:docname="again-big.svg">
  <defs
     id="defs4372">
    <linearGradient
       inkscape:collect="always"
       xlink:href="#linearGradient3929"
       id="linearGradient3963"
       x1="105.08516"
       y1="86.469322"
       x2="105.15295"
       y2="72.540756"
       gradientUnits="userSpaceOnUse" />
    <linearGradient
       id="linearGradient3929">
      <stop
         style="stop-color:#319ee6;stop-opacity:1;"
         offset="0"
         id="stop3931" />
      <stop
         style="stop-color:#6bbef4;stop-opacity:1;"
         offset="1"
         id="stop3933" />
    </linearGradient>
    <linearGradient
       gradientTransform="translate(25.988085,-27.348977)"
       y2="72.540756"
       x2="105.15295"
       y1="86.469322"
       x1="105.08516"
       gradientUnits="userSpaceOnUse"
       id="linearGradient4368"
       xlink:href="#linearGradient3929"
       inkscape:collect="always" />
    <linearGradient
       inkscape:collect="always"
       xlink:href="#linearGradient3929"
       id="linearGradient4927"
       x1="131.5222"
       y1="144.02286"
       x2="131.72864"
       y2="104.17488"
       gradientUnits="userSpaceOnUse"
       gradientTransform="matrix(0.77792244,0,0,0.64104187,15.923699,44.508728)" />
  </defs>
  <sodipodi:namedview
     id="base"
     pagecolor="#ffffff"
     bordercolor="#666666"
     borderopacity="1.0"
     inkscape:pageopacity="0.0"
     inkscape:pageshadow="2"
     inkscape:zoom="2.8284271"
     inkscape:cx="180.77172"
     inkscape:cy="-7.2666598"
     inkscape:document-units="px"
     inkscape:current-layer="layer1"
     showgrid="false"
     showguides="true"
     inkscape:guide-bbox="true"
     inkscape:window-width="1366"
     inkscape:window-height="716"
     inkscape:window-x="-8"
     inkscape:window-y="-8"
     inkscape:window-maximized="1"
     fit-margin-top="2"
     fit-margin-left="2"
     fit-margin-right="2"
     fit-margin-bottom="2">
    <sodipodi:guide
       orientation="0,1"
       position="-64.945,173.28569"
       id="guide3038" />
    <sodipodi:guide
       orientation="1,0"
       position="-121.945,-89.714312"
       id="guide3040" />
  </sodipodi:namedview>
  <metadata
     id="metadata4375">
    <rdf:RDF>
      <cc:Work
         rdf:about="">
        <dc:format>image/svg+xml</dc:format>
        <dc:type
           rdf:resource="http://purl.org/dc/dcmitype/StillImage" />
        <dc:title />
      </cc:Work>
    </rdf:RDF>
  </metadata>
  <g
     inkscape:label="Layer 1"
     inkscape:groupmode="layer"
     id="layer1"
     transform="translate(-48.330805,-104.79533)">
    <rect
       y="120.71483"
       x="64.250305"
       height="6.4776983"
       width="99.17321"
       id="rect3042"
       style="fill:#319ee6;fill-opacity:1;stroke:#319ee6;stroke-width:27.8390007;stroke-linecap:round;stroke-linejoin:round;stroke-miterlimit:4;stroke-opacity:1;stroke-dasharray:none;stroke-dashoffset:0" />
    <rect
       style="fill:#319ee6;fill-opacity:1;stroke:url(#linearGradient4927);stroke-width:25.63903618;stroke-linecap:round;stroke-linejoin:round;stroke-miterlimit:4;stroke-opacity:1;stroke-dasharray:none;stroke-dashoffset:0"
       id="rect4395"
       width="99.17321"
       height="6.4776983"
       x="64.250305"
       y="120.71483" />
    <g
       transform="translate(43.307851,121.56585)"
       style="font-size:18px;font-style:normal;font-variant:normal;font-weight:normal;font-stretch:normal;line-height:125%;letter-spacing:0px;word-spacing:0px;fill:#1781c5;fill-opacity:1;stroke:none;font-family:Tahoma;-inkscape-font-specification:Tahoma"
       id="flowRoot3812">
      <path
         d="m 49.132812,3.9935886 0,-1.828125 c -0.463547,0.046879 -0.838546,0.087244 -1.125,0.1210937 -0.286462,0.033858 -0.567712,0.1002643 -0.84375,0.1992188 -0.239587,0.083337 -0.425784,0.209639 -0.558593,0.3789062 -0.132816,0.1692741 -0.199222,0.3945343 -0.199219,0.6757813 -3e-6,0.4114606 0.110674,0.6940124 0.332031,0.8476562 0.221351,0.1536476 0.548173,0.2304704 0.980469,0.2304688 0.239579,1.6e-6 0.48437,-0.054686 0.734375,-0.1640625 0.249995,-0.1093731 0.476557,-0.2630188 0.679687,-0.4609375 z m 0,1.359375 c -0.187505,0.1562507 -0.355474,0.2968756 -0.503906,0.421875 -0.148442,0.1250004 -0.347661,0.2500002 -0.597656,0.375 -0.244796,0.1197917 -0.483077,0.2109374 -0.714844,0.2734375 -0.231774,0.0625 -0.555993,0.09375 -0.972656,0.09375 -0.776044,-3e-7 -1.420575,-0.2604167 -1.933594,-0.78125 -0.513021,-0.5208323 -0.769531,-1.1770816 -0.769531,-1.96875 0,-0.6510385 0.130208,-1.1770797 0.390625,-1.578125 0.260416,-0.4010372 0.635415,-0.7187452 1.125,-0.953125 0.494789,-0.23957807 1.085935,-0.40624457 1.773437,-0.50000003 0.687496,-0.0937444 1.427079,-0.16666095 2.21875,-0.21875 l 0,-0.046875 c -5e-6,-0.4843687 -0.178391,-0.81900378 -0.535156,-1.00390625 -0.356776,-0.18488883 -0.891931,-0.27733665 -1.605469,-0.27734375 -0.32292,7.1e-6 -0.700523,0.0586008 -1.132812,0.17578125 -0.432294,0.1171943 -0.854168,0.26693374 -1.265625,0.44921875 l -0.234375,0 0,-2.11718747 c 0.270832,-0.078116 0.708331,-0.1705642 1.3125,-0.2773438 0.604164,-0.1067618 1.213538,-0.1601472 1.828125,-0.1601562 1.510411,9e-6 2.61067,0.2513108 3.300781,0.7539062 0.690096,0.502612 1.035148,1.26953827 1.035156,2.30078127 l 0,5.96875003 -2.71875,0 z"
         style="font-size:16px;font-weight:bold;fill:#1781c5;-inkscape-font-specification:Tahoma Bold"
         id="path3870"
         inkscape:connector-curvature="0" />
      <path
         d="m 59.132812,3.5170261 0,-3.97656253 c -0.135422,-0.0624932 -0.302089,-0.11457647 -0.5,-0.15625 -0.197922,-0.0416597 -0.395838,-0.062493 -0.59375,-0.0625 -0.656254,6.96e-6 -1.149743,0.21224633 -1.480468,0.63671875 -0.330733,0.42448507 -0.496097,1.01693239 -0.496094,1.77734378 -3e-6,0.3802125 0.02474,0.7018267 0.07422,0.9648437 0.04948,0.2630242 0.141923,0.4960969 0.277343,0.6992188 0.130205,0.1979193 0.300778,0.3476588 0.511719,0.4492187 0.210933,0.1015649 0.480464,0.1523461 0.808594,0.1523438 0.244787,2.3e-6 0.485672,-0.041664 0.722656,-0.125 0.236974,-0.083331 0.462234,-0.2031224 0.675781,-0.359375 z m 2.734375,1.7578125 c -9e-6,0.8125002 -0.117196,1.5026036 -0.351562,2.0703125 -0.234383,0.5677067 -0.554696,1.0104146 -0.960938,1.328125 C 60.14843,8.99619 59.661452,9.2292627 59.09375,9.3724948 58.526036,9.5157208 57.895828,9.5873353 57.203125,9.5873386 56.619788,9.5873353 56.066403,9.5495749 55.542969,9.4740573 55.019529,9.3985334 54.565102,9.3112939 54.179687,9.2123386 l 0,-2.1953125 0.320313,0 c 0.135415,0.052083 0.295571,0.1093741 0.480469,0.171875 0.184893,0.062499 0.371091,0.1197906 0.558593,0.171875 0.223956,0.057291 0.442706,0.1041655 0.65625,0.140625 0.213539,0.036457 0.432288,0.054686 0.65625,0.054687 0.463538,-1.3e-6 0.850256,-0.048178 1.160157,-0.1445313 0.30989,-0.096355 0.542963,-0.2330738 0.699218,-0.4101562 0.156244,-0.1822922 0.265619,-0.3971358 0.328125,-0.6445313 0.06249,-0.2473956 0.09374,-0.5585932 0.09375,-0.9335937 l 0,-0.1640625 c -0.307297,0.2708341 -0.662766,0.4882818 -1.066406,0.6523437 -0.40365,0.1640627 -0.819015,0.2460939 -1.246094,0.2460938 -1.135419,10e-8 -2.01172,-0.3697912 -2.628906,-1.109375 -0.617188,-0.7395814 -0.925781,-1.8645803 -0.925781,-3.375 0,-0.68749473 0.09505,-1.30468161 0.285156,-1.85156253 0.190104,-0.54686799 0.454426,-1.01301337 0.792969,-1.39843747 0.322915,-0.3697835 0.713539,-0.6549394 1.171875,-0.8554688 0.45833,-0.2005119 0.934892,-0.3007722 1.429687,-0.3007812 0.447913,9e-6 0.848954,0.057301 1.203125,0.171875 0.354162,0.114592 0.677078,0.2682377 0.96875,0.4609375 l 0.101563,-0.390625 2.648437,0 z"
         style="font-size:16px;font-weight:bold;fill:#1781c5;-inkscape-font-specification:Tahoma Bold"
         id="path3872"
         inkscape:connector-curvature="0" />
      <path
         d="m 68.789062,3.9935886 0,-1.828125 c -0.463547,0.046879 -0.838546,0.087244 -1.125,0.1210937 -0.286462,0.033858 -0.567712,0.1002643 -0.84375,0.1992188 -0.239587,0.083337 -0.425784,0.209639 -0.558593,0.3789062 -0.132816,0.1692741 -0.199222,0.3945343 -0.199219,0.6757813 -3e-6,0.4114606 0.110674,0.6940124 0.332031,0.8476562 0.221351,0.1536476 0.548173,0.2304704 0.980469,0.2304688 0.239579,1.6e-6 0.48437,-0.054686 0.734375,-0.1640625 0.249995,-0.1093731 0.476557,-0.2630188 0.679687,-0.4609375 z m 0,1.359375 c -0.187505,0.1562507 -0.355474,0.2968756 -0.503906,0.421875 -0.148442,0.1250004 -0.347661,0.2500002 -0.597656,0.375 -0.244796,0.1197917 -0.483077,0.2109374 -0.714844,0.2734375 -0.231774,0.0625 -0.555993,0.09375 -0.972656,0.09375 -0.776044,-3e-7 -1.420575,-0.2604167 -1.933594,-0.78125 -0.513021,-0.5208323 -0.769531,-1.1770816 -0.769531,-1.96875 0,-0.6510385 0.130208,-1.1770797 0.390625,-1.578125 0.260416,-0.4010372 0.635415,-0.7187452 1.125,-0.953125 0.494789,-0.23957807 1.085935,-0.40624457 1.773437,-0.50000003 0.687496,-0.0937444 1.427079,-0.16666095 2.21875,-0.21875 l 0,-0.046875 c -5e-6,-0.4843687 -0.178391,-0.81900378 -0.535156,-1.00390625 -0.356776,-0.18488883 -0.891931,-0.27733665 -1.605469,-0.27734375 -0.32292,7.1e-6 -0.700523,0.0586008 -1.132812,0.17578125 -0.432294,0.1171943 -0.854168,0.26693374 -1.265625,0.44921875 l -0.234375,0 0,-2.11718747 c 0.270832,-0.078116 0.708331,-0.1705642 1.3125,-0.2773438 0.604164,-0.1067618 1.213538,-0.1601472 1.828125,-0.1601562 1.510411,9e-6 2.61067,0.2513108 3.300781,0.7539062 0.690096,0.502612 1.035148,1.26953827 1.035156,2.30078127 l 0,5.96875003 -2.71875,0 z"
         style="font-size:16px;font-weight:bold;fill:#1781c5;-inkscape-font-specification:Tahoma Bold"
         id="path3874"
         inkscape:connector-curvature="0" />
      <path
         d="m 76.28125,6.2826511 -2.734375,0 0,-8.7734375 2.734375,0 z m 0.07813,-10.0234375 -2.890625,0 0,-2.1328125 2.890625,0 z"
         style="font-size:16px;font-weight:bold;fill:#1781c5;-inkscape-font-specification:Tahoma Bold"
         id="path3876"
         inkscape:connector-curvature="0" />
      <path
         d="m 86.609375,6.2826511 -2.75,0 0,-4.3515625 c -7e-6,-0.354162 -0.01433,-0.7070262 -0.04297,-1.05859378 -0.02865,-0.35155674 -0.08204,-0.61067106 -0.160156,-0.77734375 -0.09376,-0.19791028 -0.229173,-0.33983722 -0.40625,-0.42578125 -0.177089,-0.0859308 -0.414068,-0.12889951 -0.710938,-0.12890625 -0.223963,6.74e-6 -0.450525,0.0416734 -0.679687,0.125 -0.229171,0.0833399 -0.473962,0.21615224 -0.734375,0.3984375 l 0,6.21875003 -2.734375,0 0,-8.7734375 2.734375,0 0,0.96875 c 0.447912,-0.3802002 0.88411,-0.6770749 1.308594,-0.890625 0.424473,-0.2135328 0.894525,-0.3203035 1.410156,-0.3203125 0.895826,9e-6 1.580721,0.2825608 2.054687,0.8476562 0.47395,0.5651118 0.710929,1.38412139 0.710938,2.45703127 z"
         style="font-size:16px;font-weight:bold;fill:#1781c5;-inkscape-font-specification:Tahoma Bold"
         id="path3878"
         inkscape:connector-curvature="0" />
      <path
         d="m 96.0625,-2.5142239 c -8e-6,0.5156333 -0.07683,0.9778724 -0.230469,1.3867187 -0.153654,0.40886119 -0.371101,0.76432958 -0.652344,1.06640627 -0.276048,0.29688105 -0.608079,0.56250578 -0.996093,0.796875 -0.388027,0.23438031 -0.821621,0.44792173 -1.300782,0.64062503 l 0,1.78125 -2.671875,0 0,-2.61718753 c 0.291664,-0.0781192 0.615883,-0.1848899 0.972657,-0.3203125 0.356767,-0.13541047 0.670568,-0.30207697 0.941406,-0.5 0.286454,-0.20311823 0.520828,-0.44009716 0.703125,-0.7109375 0.182286,-0.27082577 0.273432,-0.59113797 0.273437,-0.96093747 -5e-6,-0.5156163 -0.164067,-0.8906159 -0.492187,-1.125 -0.32813,-0.2343654 -0.783858,-0.3515528 -1.367188,-0.3515625 -0.437503,9.7e-6 -0.902346,0.096364 -1.394531,0.2890625 -0.492189,0.1927175 -0.878907,0.3854257 -1.160156,0.578125 l -0.226563,0 0,-2.3515625 c 0.333333,-0.145822 0.820311,-0.2942594 1.460938,-0.4453125 0.640622,-0.1510299 1.328121,-0.2265507 2.0625,-0.2265625 0.656245,1.18e-5 1.235671,0.076835 1.738281,0.2304687 0.502598,0.1536573 0.930983,0.3685009 1.285156,0.6445313 0.343743,0.2760524 0.605461,0.6002708 0.785157,0.9726562 0.179679,0.3724055 0.269523,0.7799572 0.269531,1.2226563 z m -2.960938,8.796875 -3.078125,0 0,-2.0625 3.078125,0 z"
         style="font-size:16px;font-weight:bold;fill:#1781c5;-inkscape-font-specification:Tahoma Bold"
         id="path3880"
         inkscape:connector-curvature="0" />
    </g>
    <g
       transform="translate(43.948016,122.20602)"
       style="font-size:18px;font-style:normal;font-variant:normal;font-weight:normal;font-stretch:normal;line-height:125%;letter-spacing:0px;word-spacing:0px;fill:#ffffff;fill-opacity:1;stroke:none;font-family:Tahoma;-inkscape-font-specification:Tahoma"
       id="flowRoot3026">
      <path
         d="m 49.132812,3.9935886 0,-1.828125 c -0.463547,0.046879 -0.838546,0.087244 -1.125,0.1210937 -0.286462,0.033858 -0.567712,0.1002643 -0.84375,0.1992188 -0.239587,0.083337 -0.425784,0.209639 -0.558593,0.3789062 -0.132816,0.1692741 -0.199222,0.3945343 -0.199219,0.6757813 -3e-6,0.4114606 0.110674,0.6940124 0.332031,0.8476562 0.221351,0.1536476 0.548173,0.2304704 0.980469,0.2304688 0.239579,1.6e-6 0.48437,-0.054686 0.734375,-0.1640625 0.249995,-0.1093731 0.476557,-0.2630188 0.679687,-0.4609375 z m 0,1.359375 c -0.187505,0.1562507 -0.355474,0.2968756 -0.503906,0.421875 -0.148442,0.1250004 -0.347661,0.2500002 -0.597656,0.375 -0.244796,0.1197917 -0.483077,0.2109374 -0.714844,0.2734375 -0.231774,0.0625 -0.555993,0.09375 -0.972656,0.09375 -0.776044,-3e-7 -1.420575,-0.2604167 -1.933594,-0.78125 -0.513021,-0.5208323 -0.769531,-1.1770816 -0.769531,-1.96875 0,-0.6510385 0.130208,-1.1770797 0.390625,-1.578125 0.260416,-0.4010372 0.635415,-0.7187452 1.125,-0.953125 0.494789,-0.23957807 1.085935,-0.40624457 1.773437,-0.50000003 0.687496,-0.0937444 1.427079,-0.16666095 2.21875,-0.21875 l 0,-0.046875 c -5e-6,-0.4843687 -0.178391,-0.81900378 -0.535156,-1.00390625 -0.356776,-0.18488883 -0.891931,-0.27733665 -1.605469,-0.27734375 -0.32292,7.1e-6 -0.700523,0.0586008 -1.132812,0.17578125 -0.432294,0.1171943 -0.854168,0.26693374 -1.265625,0.44921875 l -0.234375,0 0,-2.11718747 c 0.270832,-0.078116 0.708331,-0.1705642 1.3125,-0.2773438 0.604164,-0.1067618 1.213538,-0.1601472 1.828125,-0.1601562 1.510411,9e-6 2.61067,0.2513108 3.300781,0.7539062 0.690096,0.502612 1.035148,1.26953827 1.035156,2.30078127 l 0,5.96875003 -2.71875,0 z"
         style="font-size:16px;font-weight:bold;fill:#ffffff;-inkscape-font-specification:Tahoma Bold"
         id="path3012" />
      <path
         d="m 59.132812,3.5170261 0,-3.97656253 c -0.135422,-0.0624932 -0.302089,-0.11457647 -0.5,-0.15625 -0.197922,-0.0416597 -0.395838,-0.062493 -0.59375,-0.0625 -0.656254,6.96e-6 -1.149743,0.21224633 -1.480468,0.63671875 -0.330733,0.42448507 -0.496097,1.01693239 -0.496094,1.77734378 -3e-6,0.3802125 0.02474,0.7018267 0.07422,0.9648437 0.04948,0.2630242 0.141923,0.4960969 0.277343,0.6992188 0.130205,0.1979193 0.300778,0.3476588 0.511719,0.4492187 0.210933,0.1015649 0.480464,0.1523461 0.808594,0.1523438 0.244787,2.3e-6 0.485672,-0.041664 0.722656,-0.125 0.236974,-0.083331 0.462234,-0.2031224 0.675781,-0.359375 z m 2.734375,1.7578125 c -9e-6,0.8125002 -0.117196,1.5026036 -0.351562,2.0703125 -0.234383,0.5677067 -0.554696,1.0104146 -0.960938,1.328125 C 60.14843,8.99619 59.661452,9.2292627 59.09375,9.3724948 58.526036,9.5157208 57.895828,9.5873353 57.203125,9.5873386 56.619788,9.5873353 56.066403,9.5495749 55.542969,9.4740573 55.019529,9.3985334 54.565102,9.3112939 54.179687,9.2123386 l 0,-2.1953125 0.320313,0 c 0.135415,0.052083 0.295571,0.1093741 0.480469,0.171875 0.184893,0.062499 0.371091,0.1197906 0.558593,0.171875 0.223956,0.057291 0.442706,0.1041655 0.65625,0.140625 0.213539,0.036457 0.432288,0.054686 0.65625,0.054687 0.463538,-1.3e-6 0.850256,-0.048178 1.160157,-0.1445313 0.30989,-0.096355 0.542963,-0.2330738 0.699218,-0.4101562 0.156244,-0.1822922 0.265619,-0.3971358 0.328125,-0.6445313 0.06249,-0.2473956 0.09374,-0.5585932 0.09375,-0.9335937 l 0,-0.1640625 c -0.307297,0.2708341 -0.662766,0.4882818 -1.066406,0.6523437 -0.40365,0.1640627 -0.819015,0.2460939 -1.246094,0.2460938 -1.135419,1e-7 -2.01172,-0.3697912 -2.628906,-1.109375 -0.617188,-0.7395814 -0.925781,-1.8645803 -0.925781,-3.375 0,-0.68749473 0.09505,-1.30468161 0.285156,-1.85156253 0.190104,-0.54686799 0.454426,-1.01301337 0.792969,-1.39843747 0.322915,-0.3697835 0.713539,-0.6549394 1.171875,-0.8554688 0.45833,-0.2005119 0.934892,-0.3007722 1.429687,-0.3007812 0.447913,9e-6 0.848954,0.057301 1.203125,0.171875 0.354162,0.114592 0.677078,0.2682377 0.96875,0.4609375 l 0.101563,-0.390625 2.648437,0 z"
         style="font-size:16px;font-weight:bold;fill:#ffffff;-inkscape-font-specification:Tahoma Bold"
         id="path3014" />
      <path
         d="m 68.789062,3.9935886 0,-1.828125 c -0.463547,0.046879 -0.838546,0.087244 -1.125,0.1210937 -0.286462,0.033858 -0.567712,0.1002643 -0.84375,0.1992188 -0.239587,0.083337 -0.425784,0.209639 -0.558593,0.3789062 -0.132816,0.1692741 -0.199222,0.3945343 -0.199219,0.6757813 -3e-6,0.4114606 0.110674,0.6940124 0.332031,0.8476562 0.221351,0.1536476 0.548173,0.2304704 0.980469,0.2304688 0.239579,1.6e-6 0.48437,-0.054686 0.734375,-0.1640625 0.249995,-0.1093731 0.476557,-0.2630188 0.679687,-0.4609375 z m 0,1.359375 c -0.187505,0.1562507 -0.355474,0.2968756 -0.503906,0.421875 -0.148442,0.1250004 -0.347661,0.2500002 -0.597656,0.375 -0.244796,0.1197917 -0.483077,0.2109374 -0.714844,0.2734375 -0.231774,0.0625 -0.555993,0.09375 -0.972656,0.09375 -0.776044,-3e-7 -1.420575,-0.2604167 -1.933594,-0.78125 -0.513021,-0.5208323 -0.769531,-1.1770816 -0.769531,-1.96875 0,-0.6510385 0.130208,-1.1770797 0.390625,-1.578125 0.260416,-0.4010372 0.635415,-0.7187452 1.125,-0.953125 0.494789,-0.23957807 1.085935,-0.40624457 1.773437,-0.50000003 0.687496,-0.0937444 1.427079,-0.16666095 2.21875,-0.21875 l 0,-0.046875 c -5e-6,-0.4843687 -0.178391,-0.81900378 -0.535156,-1.00390625 -0.356776,-0.18488883 -0.891931,-0.27733665 -1.605469,-0.27734375 -0.32292,7.1e-6 -0.700523,0.0586008 -1.132812,0.17578125 -0.432294,0.1171943 -0.854168,0.26693374 -1.265625,0.44921875 l -0.234375,0 0,-2.11718747 c 0.270832,-0.078116 0.708331,-0.1705642 1.3125,-0.2773438 0.604164,-0.1067618 1.213538,-0.1601472 1.828125,-0.1601562 1.510411,9e-6 2.61067,0.2513108 3.300781,0.7539062 0.690096,0.502612 1.035148,1.26953827 1.035156,2.30078127 l 0,5.96875003 -2.71875,0 z"
         style="font-size:16px;font-weight:bold;fill:#ffffff;-inkscape-font-specification:Tahoma Bold"
         id="path3016" />
      <path
         d="m 76.28125,6.2826511 -2.734375,0 0,-8.7734375 2.734375,0 z m 0.07813,-10.0234375 -2.890625,0 0,-2.1328125 2.890625,0 z"
         style="font-size:16px;font-weight:bold;fill:#ffffff;-inkscape-font-specification:Tahoma Bold"
         id="path3018" />
      <path
         d="m 86.609375,6.2826511 -2.75,0 0,-4.3515625 c -7e-6,-0.354162 -0.01433,-0.7070262 -0.04297,-1.05859378 -0.02865,-0.35155674 -0.08204,-0.61067106 -0.160156,-0.77734375 -0.09376,-0.19791028 -0.229173,-0.33983722 -0.40625,-0.42578125 -0.177089,-0.0859308 -0.414068,-0.12889951 -0.710938,-0.12890625 -0.223963,6.74e-6 -0.450525,0.0416734 -0.679687,0.125 -0.229171,0.0833399 -0.473962,0.21615224 -0.734375,0.3984375 l 0,6.21875003 -2.734375,0 0,-8.7734375 2.734375,0 0,0.96875 c 0.447912,-0.3802002 0.88411,-0.6770749 1.308594,-0.890625 0.424473,-0.2135328 0.894525,-0.3203035 1.410156,-0.3203125 0.895826,9e-6 1.580721,0.2825608 2.054687,0.8476562 0.47395,0.5651118 0.710929,1.38412139 0.710938,2.45703127 z"
         style="font-size:16px;font-weight:bold;fill:#ffffff;-inkscape-font-specification:Tahoma Bold"
         id="path3020" />
      <path
         d="m 96.0625,-2.5142239 c -8e-6,0.5156333 -0.07683,0.9778724 -0.230469,1.3867187 -0.153654,0.40886119 -0.371101,0.76432958 -0.652344,1.06640627 -0.276048,0.29688105 -0.608079,0.56250578 -0.996093,0.796875 -0.388027,0.23438031 -0.821621,0.44792173 -1.300782,0.64062503 l 0,1.78125 -2.671875,0 0,-2.61718753 c 0.291664,-0.0781192 0.615883,-0.1848899 0.972657,-0.3203125 0.356767,-0.13541047 0.670568,-0.30207697 0.941406,-0.5 0.286454,-0.20311823 0.520828,-0.44009716 0.703125,-0.7109375 0.182286,-0.27082577 0.273432,-0.59113797 0.273437,-0.96093747 -5e-6,-0.5156163 -0.164067,-0.8906159 -0.492187,-1.125 -0.32813,-0.2343654 -0.783858,-0.3515528 -1.367188,-0.3515625 -0.437503,9.7e-6 -0.902346,0.096364 -1.394531,0.2890625 -0.492189,0.1927175 -0.878907,0.3854257 -1.160156,0.578125 l -0.226563,0 0,-2.3515625 c 0.333333,-0.145822 0.820311,-0.2942594 1.460938,-0.4453125 0.640622,-0.1510299 1.328121,-0.2265507 2.0625,-0.2265625 0.656245,1.18e-5 1.235671,0.076835 1.738281,0.2304687 0.502598,0.1536573 0.930983,0.3685009 1.285156,0.6445313 0.343743,0.2760524 0.605461,0.6002708 0.785157,0.9726562 0.179679,0.3724055 0.269523,0.7799572 0.269531,1.2226563 z m -2.960938,8.796875 -3.078125,0 0,-2.0625 3.078125,0 z"
         style="font-size:16px;font-weight:bold;fill:#ffffff;-inkscape-font-specification:Tahoma Bold"
         id="path3022" />
    </g>
  </g>
</svg>
