<?xml version="1.0" encoding="UTF-8" standalone="no"?>
<!-- Created with Inkscape (http://www.inkscape.org/) -->

<svg
   xmlns:dc="http://purl.org/dc/elements/1.1/"
   xmlns:cc="http://creativecommons.org/ns#"
   xmlns:rdf="http://www.w3.org/1999/02/22-rdf-syntax-ns#"
   xmlns:svg="http://www.w3.org/2000/svg"
   xmlns="http://www.w3.org/2000/svg"
   xmlns:xlink="http://www.w3.org/1999/xlink"
   xmlns:sodipodi="http://sodipodi.sourceforge.net/DTD/sodipodi-0.dtd"
   xmlns:inkscape="http://www.inkscape.org/namespaces/inkscape"
   width="160.4584"
   height="45.745319"
   id="svg4370"
   version="1.1"
   inkscape:version="0.48.0 r9654"
   sodipodi:docname="do-the-magic.svg">
  <defs
     id="defs4372">
    <linearGradient
       inkscape:collect="always"
       xlink:href="#linearGradient3929"
       id="linearGradient3963"
       x1="105.08516"
       y1="86.469322"
       x2="105.15295"
       y2="72.540756"
       gradientUnits="userSpaceOnUse" />
    <linearGradient
       id="linearGradient3929">
      <stop
         style="stop-color:#319ee6;stop-opacity:1;"
         offset="0"
         id="stop3931" />
      <stop
         style="stop-color:#6bbef4;stop-opacity:1;"
         offset="1"
         id="stop3933" />
    </linearGradient>
    <linearGradient
       gradientTransform="translate(25.988085,-27.348977)"
       y2="72.540756"
       x2="105.15295"
       y1="86.469322"
       x1="105.08516"
       gradientUnits="userSpaceOnUse"
       id="linearGradient4368"
       xlink:href="#linearGradient3929"
       inkscape:collect="always" />
    <linearGradient
       inkscape:collect="always"
       xlink:href="#linearGradient3929"
       id="linearGradient4927"
       x1="131.5222"
       y1="144.02286"
       x2="131.72864"
       y2="104.17488"
       gradientUnits="userSpaceOnUse"
       gradientTransform="matrix(0.96269904,0,0,0.79330581,4.444886,-222.26885)" />
  </defs>
  <sodipodi:namedview
     id="base"
     pagecolor="#ffffff"
     bordercolor="#666666"
     borderopacity="1.0"
     inkscape:pageopacity="0.0"
     inkscape:pageshadow="2"
     inkscape:zoom="4"
     inkscape:cx="71.583369"
     inkscape:cy="-19.265967"
     inkscape:document-units="px"
     inkscape:current-layer="layer1"
     showgrid="false"
     showguides="true"
     inkscape:guide-bbox="true"
     inkscape:window-width="1366"
     inkscape:window-height="716"
     inkscape:window-x="-8"
     inkscape:window-y="-8"
     inkscape:window-maximized="1"
     fit-margin-top="2"
     fit-margin-left="2"
     fit-margin-right="2"
     fit-margin-bottom="2">
    <sodipodi:guide
       orientation="1,0"
       position="-88.885805,143.46415"
       id="guide4929" />
    <sodipodi:guide
       orientation="0,1"
       position="-73.385805,120.96415"
       id="guide4931" />
    <sodipodi:guide
       orientation="1,0"
       position="-126.05247,83.797474"
       id="guide5064" />
    <sodipodi:guide
       orientation="0,1"
       position="-61.385805,181.79745"
       id="guide5066" />
  </sodipodi:namedview>
  <metadata
     id="metadata4375">
    <rdf:RDF>
      <cc:Work
         rdf:about="">
        <dc:format>image/svg+xml</dc:format>
        <dc:type
           rdf:resource="http://purl.org/dc/dcmitype/StillImage" />
        <dc:title></dc:title>
      </cc:Work>
    </rdf:RDF>
  </metadata>
  <g
     inkscape:label="Layer 1"
     inkscape:groupmode="layer"
     id="layer1"
     transform="translate(-45.385805,-101.08102)">
    <rect
       y="119.94552"
       x="64.250305"
       height="8.0163183"
       width="122.7294"
       id="rect5068"
       style="fill:none;stroke:#319ee6;stroke-width:33.72900009;stroke-linecap:round;stroke-linejoin:round;stroke-miterlimit:4;stroke-opacity:1;stroke-dasharray:none;stroke-dashoffset:0" />
    <rect
       style="fill:#319ee6;fill-opacity:1;stroke:url(#linearGradient4927);stroke-width:31.72896767;stroke-linecap:round;stroke-linejoin:round;stroke-miterlimit:4;stroke-opacity:1;stroke-dasharray:none;stroke-dashoffset:0"
       id="rect4395"
       width="122.7294"
       height="8.0163183"
       x="64.250305"
       y="-127.96184"
       transform="scale(1,-1)" />
    <g
       transform="translate(-0.54549515,-1.5738365)"
       style="font-size:18px;font-style:normal;font-variant:normal;font-weight:normal;font-stretch:normal;line-height:125%;letter-spacing:0px;word-spacing:0px;fill:#1781c5;fill-opacity:1;stroke:none;font-family:Tahoma;-inkscape-font-specification:Tahoma"
       id="flowRoot4933">
      <path
         d="m 80.429687,129.3139 -2.734375,0 0,-0.91406 c -0.177089,0.14583 -0.378912,0.30208 -0.605468,0.46875 -0.226568,0.16667 -0.425787,0.29167 -0.597657,0.375 -0.218754,0.10417 -0.4349,0.18229 -0.648437,0.23437 -0.213546,0.0521 -0.468754,0.0781 -0.765625,0.0781 -1.000003,0 -1.791669,-0.41406 -2.375,-1.24219 -0.583334,-0.82812 -0.875,-1.93489 -0.875,-3.32031 0,-0.76562 0.09896,-1.42968 0.296875,-1.99219 0.197916,-0.56249 0.471353,-1.05207 0.820312,-1.46875 0.317707,-0.3802 0.703123,-0.68098 1.15625,-0.90234 0.453122,-0.22135 0.932289,-0.33202 1.4375,-0.33203 0.458329,1e-5 0.834631,0.0482 1.128907,0.14453 0.294265,0.0964 0.636713,0.2461 1.027343,0.44922 l 0,-3.73438 2.734375,0 z m -2.734375,-2.42187 0,-4.30469 c -0.135422,-0.0677 -0.312505,-0.12369 -0.53125,-0.16797 -0.218755,-0.0443 -0.406255,-0.0664 -0.5625,-0.0664 -0.656254,1e-5 -1.149743,0.22918 -1.480468,0.6875 -0.330733,0.45834 -0.496097,1.09897 -0.496094,1.92188 -3e-6,0.86459 0.131507,1.48958 0.394531,1.875 0.263017,0.38542 0.688798,0.57813 1.277344,0.57812 0.239578,1e-5 0.481765,-0.0469 0.726562,-0.14062 0.244786,-0.0937 0.468744,-0.22135 0.671875,-0.38281 z"
         style="font-size:16px;font-weight:bold;fill:#1781c5;fill-opacity:1;-inkscape-font-specification:Tahoma Bold"
         id="path4942"
         inkscape:connector-curvature="0" />
      <path
         d="m 90.9375,124.93109 c -9e-6,1.44271 -0.39454,2.57943 -1.183594,3.41015 -0.78907,0.83073 -1.904954,1.2461 -3.347656,1.2461 -1.432295,0 -2.545575,-0.41537 -3.339844,-1.2461 -0.794271,-0.83072 -1.191406,-1.96744 -1.191406,-3.41015 0,-1.45833 0.397135,-2.60025 1.191406,-3.42578 0.794269,-0.82551 1.907549,-1.23827 3.339844,-1.23828 1.437494,10e-6 2.552076,0.41537 3.34375,1.24609 0.791658,0.83074 1.187491,1.97006 1.1875,3.41797 z m -2.804688,0.0156 c -6e-6,-0.52082 -0.04297,-0.95442 -0.128906,-1.30078 -0.08594,-0.34635 -0.204433,-0.62369 -0.355469,-0.83203 -0.161464,-0.21874 -0.343755,-0.37109 -0.546875,-0.45703 -0.20313,-0.0859 -0.434901,-0.1289 -0.695312,-0.12891 -0.244796,1e-5 -0.46615,0.0378 -0.664063,0.11328 -0.19792,0.0755 -0.380212,0.22006 -0.546875,0.4336 -0.156253,0.20313 -0.281253,0.48178 -0.375,0.83594 -0.09375,0.35417 -0.140628,0.79948 -0.140625,1.33593 -3e-6,0.53647 0.04427,0.97006 0.132813,1.30078 0.08854,0.33074 0.203121,0.59506 0.34375,0.79297 0.14583,0.20313 0.328121,0.35157 0.546875,0.44532 0.218746,0.0937 0.460933,0.14062 0.726562,0.14062 0.218745,0 0.441401,-0.0469 0.667969,-0.14062 0.226557,-0.0937 0.407546,-0.23438 0.542969,-0.42188 0.161452,-0.22395 0.283848,-0.49349 0.367187,-0.80859 0.08333,-0.3151 0.124994,-0.7513 0.125,-1.3086 z"
         style="font-size:16px;font-weight:bold;fill:#1781c5;fill-opacity:1;-inkscape-font-specification:Tahoma Bold"
         id="path4944"
         inkscape:connector-curvature="0" />
      <path
         d="m 100.4375,129.48578 c -1.114587,0 -1.925784,-0.22917 -2.433594,-0.6875 -0.507814,-0.45834 -0.76172,-1.20834 -0.761719,-2.25 l 0,-4.10157 -1.046875,0 0,-1.90625 1.046875,0 0,-2.50781 2.734375,0 0,2.50781 2.632818,0 0,1.90625 -2.632818,0 0,3.10938 c -3e-6,0.30729 0.0026,0.57552 0.0078,0.80469 0.0052,0.22917 0.04687,0.43489 0.125008,0.61718 0.0729,0.1823 0.20181,0.32683 0.38671,0.4336 0.18489,0.10677 0.45443,0.16016 0.8086,0.16015 0.14583,1e-5 0.33723,-0.0312 0.57422,-0.0937 0.23697,-0.0625 0.40233,-0.11979 0.49609,-0.17187 l 0.23438,0 0,1.92969 c -0.29689,0.0781 -0.61199,0.13932 -0.94532,0.18359 -0.33334,0.0443 -0.74219,0.0664 -1.22656,0.0664 z"
         style="font-size:16px;font-weight:bold;fill:#1781c5;fill-opacity:1;-inkscape-font-specification:Tahoma Bold"
         id="path4946"
         inkscape:connector-curvature="0" />
      <path
         d="m 111.95313,129.3139 -2.75,0 0,-4.35156 c -1e-5,-0.35416 -0.0143,-0.70703 -0.043,-1.0586 -0.0287,-0.35155 -0.082,-0.61067 -0.16016,-0.77734 -0.0938,-0.19791 -0.22917,-0.33984 -0.40625,-0.42578 -0.17709,-0.0859 -0.41407,-0.1289 -0.71094,-0.12891 -0.22396,1e-5 -0.45052,0.0417 -0.67968,0.125 -0.22918,0.0833 -0.47397,0.21616 -0.73438,0.39844 l 0,6.21875 -2.73437,0 0,-12.15625 2.73437,0 0,4.35156 c 0.44791,-0.3802 0.88411,-0.67707 1.30859,-0.89062 0.42448,-0.21353 0.89453,-0.3203 1.41016,-0.32031 0.89583,10e-6 1.58072,0.28256 2.05469,0.84765 0.47395,0.56511 0.71093,1.38412 0.71094,2.45703 z"
         style="font-size:16px;font-weight:bold;fill:#1781c5;fill-opacity:1;-inkscape-font-specification:Tahoma Bold"
         id="path4948"
         inkscape:connector-curvature="0" />
      <path
         d="m 118.47656,129.54828 c -1.65625,0 -2.92578,-0.39584 -3.80859,-1.1875 -0.88281,-0.79167 -1.32422,-1.91927 -1.32422,-3.38282 0,-1.43228 0.41146,-2.57551 1.23438,-3.42968 0.82291,-0.85416 1.97395,-1.28124 3.45312,-1.28125 1.34374,10e-6 2.35416,0.36198 3.03125,1.08593 0.67707,0.72397 1.01562,1.76043 1.01563,3.10938 l 0,0.98437 -5.99219,0 c 0.026,0.40626 0.11197,0.7461 0.25781,1.01953 0.14583,0.27344 0.33854,0.49089 0.57813,0.65235 0.23437,0.16146 0.5078,0.27734 0.82031,0.34765 0.31249,0.0703 0.65364,0.10548 1.02344,0.10547 0.3177,1e-5 0.6302,-0.0352 0.9375,-0.10547 0.30728,-0.0703 0.58853,-0.16275 0.84375,-0.27734 0.22395,-0.099 0.43098,-0.20573 0.62109,-0.32031 0.19009,-0.11458 0.34504,-0.21614 0.46484,-0.30469 l 0.28907,0 0,2.25781 c -0.22397,0.0885 -0.4284,0.17058 -0.61329,0.2461 -0.1849,0.0755 -0.43881,0.15234 -0.76171,0.23047 -0.29689,0.0781 -0.60288,0.13932 -0.91797,0.18359 -0.31511,0.0443 -0.69923,0.0664 -1.15235,0.0664 z m 0.90625,-5.75 c -0.0156,-0.57812 -0.14974,-1.01823 -0.40234,-1.32032 -0.25261,-0.30207 -0.63933,-0.45311 -1.16016,-0.45312 -0.53125,1e-5 -0.94662,0.15886 -1.24609,0.47656 -0.29948,0.31772 -0.46485,0.75001 -0.49609,1.29688 z"
         style="font-size:16px;font-weight:bold;fill:#1781c5;fill-opacity:1;-inkscape-font-specification:Tahoma Bold"
         id="path4950"
         inkscape:connector-curvature="0" />
      <path
         d="m 138.65625,129.3139 0,-4.38281 c -1e-5,-0.43229 -0.008,-0.79687 -0.0234,-1.09375 -0.0156,-0.29687 -0.0625,-0.53906 -0.14062,-0.72656 -0.0781,-0.1875 -0.19923,-0.32422 -0.36328,-0.41016 -0.16408,-0.0859 -0.39455,-0.1289 -0.69141,-0.12891 -0.20834,1e-5 -0.41407,0.0456 -0.61719,0.13672 -0.20313,0.0911 -0.42449,0.22006 -0.66406,0.38672 l 0,6.21875 -2.75,0 0,-4.38281 c -1e-5,-0.42708 -0.009,-0.79036 -0.0273,-1.08985 -0.0182,-0.29947 -0.0664,-0.54296 -0.14454,-0.73046 -0.0781,-0.1875 -0.19922,-0.32422 -0.36328,-0.41016 -0.16406,-0.0859 -0.39193,-0.1289 -0.68359,-0.12891 -0.22396,1e-5 -0.44271,0.0521 -0.65625,0.15625 -0.21355,0.10418 -0.42188,0.22657 -0.625,0.36719 l 0,6.21875 -2.73438,0 0,-8.77344 2.73438,0 0,0.96875 c 0.44791,-0.3802 0.86979,-0.67707 1.26562,-0.89062 0.39583,-0.21353 0.84114,-0.3203 1.33594,-0.32031 0.53645,10e-6 1.00781,0.12761 1.41406,0.38281 0.40625,0.25522 0.71614,0.63542 0.92969,1.14062 0.52603,-0.48957 1.02213,-0.86587 1.48828,-1.1289 0.46614,-0.26301 0.93879,-0.39452 1.41797,-0.39453 0.40624,10e-6 0.77082,0.0651 1.09375,0.19531 0.32291,0.13022 0.59634,0.32553 0.82031,0.58594 0.24478,0.28125 0.42838,0.61589 0.55079,1.0039 0.12238,0.38803 0.18358,0.89454 0.18359,1.51953 l 0,5.71094 z"
         style="font-size:16px;font-weight:bold;fill:#1781c5;fill-opacity:1;-inkscape-font-specification:Tahoma Bold"
         id="path4952"
         inkscape:connector-curvature="0" />
      <path
         d="m 148.25781,127.02484 0,-1.82813 c -0.46354,0.0469 -0.83854,0.0872 -1.125,0.1211 -0.28646,0.0339 -0.56771,0.10026 -0.84375,0.19922 -0.23958,0.0833 -0.42578,0.20964 -0.55859,0.3789 -0.13282,0.16928 -0.19922,0.39454 -0.19922,0.67578 0,0.41146 0.11067,0.69402 0.33203,0.84766 0.22135,0.15365 0.54817,0.23047 0.98047,0.23047 0.23958,0 0.48437,-0.0547 0.73437,-0.16406 0.25,-0.10938 0.47656,-0.26302 0.67969,-0.46094 z m 0,1.35937 c -0.1875,0.15625 -0.35547,0.29688 -0.5039,0.42188 -0.14845,0.125 -0.34767,0.25 -0.59766,0.375 -0.2448,0.11979 -0.48308,0.21094 -0.71484,0.27344 -0.23178,0.0625 -0.556,0.0937 -0.97266,0.0937 -0.77604,0 -1.42057,-0.26042 -1.93359,-0.78125 -0.51303,-0.52084 -0.76954,-1.17709 -0.76954,-1.96875 0,-0.65104 0.13021,-1.17708 0.39063,-1.57813 0.26042,-0.40104 0.63542,-0.71874 1.125,-0.95312 0.49479,-0.23958 1.08593,-0.40625 1.77344,-0.5 0.68749,-0.0937 1.42708,-0.16666 2.21875,-0.21875 l 0,-0.0469 c -1e-5,-0.48437 -0.17839,-0.819 -0.53516,-1.00391 -0.35677,-0.18488 -0.89193,-0.27733 -1.60547,-0.27734 -0.32292,1e-5 -0.70052,0.0586 -1.13281,0.17578 -0.43229,0.1172 -0.85417,0.26694 -1.26563,0.44922 l -0.23437,0 0,-2.11719 c 0.27083,-0.0781 0.70833,-0.17056 1.3125,-0.27734 0.60416,-0.10676 1.21354,-0.16015 1.82812,-0.16016 1.51042,1e-5 2.61068,0.25131 3.30079,0.75391 0.69009,0.50261 1.03514,1.26954 1.03515,2.30078 l 0,5.96875 -2.71875,0 z"
         style="font-size:16px;font-weight:bold;fill:#1781c5;fill-opacity:1;-inkscape-font-specification:Tahoma Bold"
         id="path4954"
         inkscape:connector-curvature="0" />
      <path
         d="m 158.25781,126.54828 0,-3.97657 c -0.13542,-0.0625 -0.30209,-0.11457 -0.5,-0.15625 -0.19792,-0.0417 -0.39584,-0.0625 -0.59375,-0.0625 -0.65625,1e-5 -1.14974,0.21225 -1.48047,0.63672 -0.33073,0.42449 -0.49609,1.01693 -0.49609,1.77735 0,0.38021 0.0247,0.70182 0.0742,0.96484 0.0495,0.26302 0.14192,0.4961 0.27734,0.69922 0.13021,0.19792 0.30078,0.34766 0.51172,0.44922 0.21093,0.10156 0.48047,0.15234 0.80859,0.15234 0.24479,0 0.48568,-0.0417 0.72266,-0.125 0.23697,-0.0833 0.46223,-0.20312 0.67578,-0.35937 z m 2.73438,1.75781 c -1e-5,0.8125 -0.1172,1.5026 -0.35157,2.07031 -0.23438,0.56771 -0.55469,1.01042 -0.96093,1.32813 -0.40626,0.32291 -0.89324,0.55598 -1.46094,0.69921 -0.56771,0.14323 -1.19792,0.21485 -1.89063,0.21485 -0.58333,0 -1.13672,-0.0378 -1.66015,-0.11328 -0.52344,-0.0755 -0.97787,-0.16277 -1.36328,-0.26172 l 0,-2.19531 0.32031,0 c 0.13541,0.0521 0.29557,0.10937 0.48047,0.17187 0.18489,0.0625 0.37109,0.11979 0.55859,0.17188 0.22396,0.0573 0.44271,0.10416 0.65625,0.14062 0.21354,0.0365 0.43229,0.0547 0.65625,0.0547 0.46354,0 0.85026,-0.0482 1.16016,-0.14453 0.30989,-0.0964 0.54296,-0.23308 0.69922,-0.41016 0.15624,-0.18229 0.26562,-0.39713 0.32812,-0.64453 0.0625,-0.2474 0.0937,-0.55859 0.0937,-0.93359 l 0,-0.16407 c -0.3073,0.27084 -0.66276,0.48829 -1.0664,0.65235 -0.40365,0.16406 -0.81902,0.24609 -1.2461,0.24609 -1.13542,0 -2.01172,-0.36979 -2.6289,-1.10937 -0.61719,-0.73959 -0.92579,-1.86458 -0.92579,-3.375 0,-0.6875 0.0951,-1.30469 0.28516,-1.85157 0.1901,-0.54686 0.45443,-1.01301 0.79297,-1.39843 0.32291,-0.36979 0.71354,-0.65494 1.17187,-0.85547 0.45834,-0.20051 0.9349,-0.30077 1.42969,-0.30078 0.44791,1e-5 0.84896,0.0573 1.20313,0.17187 0.35416,0.11459 0.67707,0.26824 0.96875,0.46094 l 0.10156,-0.39063 2.64844,0 z"
         style="font-size:16px;font-weight:bold;fill:#1781c5;fill-opacity:1;-inkscape-font-specification:Tahoma Bold"
         id="path4956"
         inkscape:connector-curvature="0" />
      <path
         d="m 165.8125,129.3139 -2.73438,0 0,-8.77344 2.73438,0 z m 0.0781,-10.02344 -2.89062,0 0,-2.13281 2.89062,0 z"
         style="font-size:16px;font-weight:bold;fill:#1781c5;fill-opacity:1;-inkscape-font-specification:Tahoma Bold"
         id="path4958"
         inkscape:connector-curvature="0" />
      <path
         d="m 172.22656,129.54828 c -0.72396,0 -1.38672,-0.0911 -1.98828,-0.27344 -0.60156,-0.18229 -1.1237,-0.46354 -1.56641,-0.84375 -0.4375,-0.38021 -0.77864,-0.85807 -1.02343,-1.4336 -0.24479,-0.57551 -0.36719,-1.2539 -0.36719,-2.03515 0,-0.83854 0.13281,-1.55208 0.39844,-2.14063 0.26562,-0.58853 0.625,-1.07291 1.07812,-1.45312 0.4375,-0.36458 0.95182,-0.63411 1.54297,-0.8086 0.59114,-0.17447 1.20703,-0.2617 1.84766,-0.26171 0.48437,10e-6 0.96874,0.056 1.45312,0.16796 0.48437,0.11199 0.97135,0.29038 1.46094,0.53516 l 0,2.34375 -0.35156,0 c -0.10939,-0.10416 -0.2435,-0.21874 -0.40235,-0.34375 -0.15886,-0.12499 -0.33203,-0.23958 -0.51953,-0.34375 -0.19792,-0.10937 -0.42188,-0.20181 -0.67187,-0.27734 -0.25001,-0.0755 -0.52865,-0.11328 -0.83594,-0.11328 -0.69792,0 -1.23829,0.24349 -1.62109,0.73046 -0.38282,0.48699 -0.57423,1.14194 -0.57422,1.96485 -1e-5,0.88021 0.20442,1.53646 0.61328,1.96875 0.40885,0.43229 0.95182,0.64844 1.6289,0.64844 0.34375,0 0.64583,-0.0391 0.90625,-0.11719 0.26042,-0.0781 0.48437,-0.17187 0.67188,-0.28125 0.18228,-0.10937 0.33853,-0.22266 0.46875,-0.33985 0.1302,-0.11718 0.24218,-0.22265 0.33594,-0.3164 l 0.35156,0 0,2.34375 c -0.15626,0.0677 -0.33725,0.14583 -0.54297,0.23437 -0.20574,0.0885 -0.41537,0.16146 -0.62891,0.21875 -0.26563,0.0729 -0.51432,0.12891 -0.74609,0.16797 -0.23178,0.0391 -0.53776,0.0586 -0.91797,0.0586 z"
         style="font-size:16px;font-weight:bold;fill:#1781c5;fill-opacity:1;-inkscape-font-specification:Tahoma Bold"
         id="path4960"
         inkscape:connector-curvature="0" />
      <path
         d="m 179.60937,117.68109 -0.32031,8.28125 -2.46875,0 -0.32031,-8.28125 z m -0.0156,11.63281 -3.07813,0 0,-2.0625 3.07813,0 z"
         style="font-size:16px;font-weight:bold;fill:#1781c5;fill-opacity:1;-inkscape-font-specification:Tahoma Bold"
         id="path4962"
         inkscape:connector-curvature="0" />
    </g>
    <g
       transform="translate(0.0428932,-0.9803932)"
       style="font-size:18px;font-style:normal;font-variant:normal;font-weight:normal;font-stretch:normal;line-height:125%;letter-spacing:0px;word-spacing:0px;fill:#ffffff;fill-opacity:1;stroke:none;font-family:Tahoma;-inkscape-font-specification:Tahoma"
       id="flowRoot4397">
      <path
         d="m 80.429687,129.3139 -2.734375,0 0,-0.91406 c -0.177089,0.14583 -0.378912,0.30208 -0.605468,0.46875 -0.226568,0.16667 -0.425787,0.29167 -0.597657,0.375 -0.218754,0.10417 -0.4349,0.18229 -0.648437,0.23437 -0.213546,0.0521 -0.468754,0.0781 -0.765625,0.0781 -1.000003,0 -1.791669,-0.41406 -2.375,-1.24219 -0.583334,-0.82812 -0.875,-1.93489 -0.875,-3.32031 0,-0.76562 0.09896,-1.42968 0.296875,-1.99219 0.197916,-0.56249 0.471353,-1.05207 0.820312,-1.46875 0.317707,-0.3802 0.703123,-0.68098 1.15625,-0.90234 0.453122,-0.22135 0.932289,-0.33202 1.4375,-0.33203 0.458329,1e-5 0.834631,0.0482 1.128907,0.14453 0.294265,0.0964 0.636713,0.2461 1.027343,0.44922 l 0,-3.73438 2.734375,0 z m -2.734375,-2.42187 0,-4.30469 c -0.135422,-0.0677 -0.312505,-0.12369 -0.53125,-0.16797 -0.218755,-0.0443 -0.406255,-0.0664 -0.5625,-0.0664 -0.656254,1e-5 -1.149743,0.22918 -1.480468,0.6875 -0.330733,0.45834 -0.496097,1.09897 -0.496094,1.92188 -3e-6,0.86459 0.131507,1.48958 0.394531,1.875 0.263017,0.38542 0.688798,0.57813 1.277344,0.57812 0.239578,1e-5 0.481765,-0.0469 0.726562,-0.14062 0.244786,-0.0937 0.468744,-0.22135 0.671875,-0.38281 z"
         style="font-size:16px;font-weight:bold;fill:#ffffff;fill-opacity:1;-inkscape-font-specification:Tahoma Bold"
         id="path5071"
         inkscape:connector-curvature="0" />
      <path
         d="m 90.9375,124.93109 c -9e-6,1.44271 -0.39454,2.57943 -1.183594,3.41015 -0.78907,0.83073 -1.904954,1.2461 -3.347656,1.2461 -1.432295,0 -2.545575,-0.41537 -3.339844,-1.2461 -0.794271,-0.83072 -1.191406,-1.96744 -1.191406,-3.41015 0,-1.45833 0.397135,-2.60025 1.191406,-3.42578 0.794269,-0.82551 1.907549,-1.23827 3.339844,-1.23828 1.437494,10e-6 2.552076,0.41537 3.34375,1.24609 0.791658,0.83074 1.187491,1.97006 1.1875,3.41797 z m -2.804688,0.0156 c -6e-6,-0.52082 -0.04297,-0.95442 -0.128906,-1.30078 -0.08594,-0.34635 -0.204433,-0.62369 -0.355469,-0.83203 -0.161464,-0.21874 -0.343755,-0.37109 -0.546875,-0.45703 -0.20313,-0.0859 -0.434901,-0.1289 -0.695312,-0.12891 -0.244796,1e-5 -0.46615,0.0378 -0.664063,0.11328 -0.19792,0.0755 -0.380212,0.22006 -0.546875,0.4336 -0.156253,0.20313 -0.281253,0.48178 -0.375,0.83594 -0.09375,0.35417 -0.140628,0.79948 -0.140625,1.33593 -3e-6,0.53647 0.04427,0.97006 0.132813,1.30078 0.08854,0.33074 0.203121,0.59506 0.34375,0.79297 0.14583,0.20313 0.328121,0.35157 0.546875,0.44532 0.218746,0.0937 0.460933,0.14062 0.726562,0.14062 0.218745,0 0.441401,-0.0469 0.667969,-0.14062 0.226557,-0.0937 0.407546,-0.23438 0.542969,-0.42188 0.161452,-0.22395 0.283848,-0.49349 0.367187,-0.80859 0.08333,-0.3151 0.124994,-0.7513 0.125,-1.3086 z"
         style="font-size:16px;font-weight:bold;fill:#ffffff;fill-opacity:1;-inkscape-font-specification:Tahoma Bold"
         id="path5073"
         inkscape:connector-curvature="0" />
      <path
         d="m 100.4375,129.48578 c -1.114587,0 -1.925784,-0.22917 -2.433594,-0.6875 -0.507814,-0.45834 -0.76172,-1.20834 -0.761719,-2.25 l 0,-4.10157 -1.046875,0 0,-1.90625 1.046875,0 0,-2.50781 2.734375,0 0,2.50781 2.632818,0 0,1.90625 -2.632818,0 0,3.10938 c -3e-6,0.30729 0.0026,0.57552 0.0078,0.80469 0.0052,0.22917 0.04687,0.43489 0.125008,0.61718 0.0729,0.1823 0.20181,0.32683 0.38671,0.4336 0.18489,0.10677 0.45443,0.16016 0.8086,0.16015 0.14583,1e-5 0.33723,-0.0312 0.57422,-0.0937 0.23697,-0.0625 0.40233,-0.11979 0.49609,-0.17187 l 0.23438,0 0,1.92969 c -0.29689,0.0781 -0.61199,0.13932 -0.94532,0.18359 -0.33334,0.0443 -0.74219,0.0664 -1.22656,0.0664 z"
         style="font-size:16px;font-weight:bold;fill:#ffffff;fill-opacity:1;-inkscape-font-specification:Tahoma Bold"
         id="path5075"
         inkscape:connector-curvature="0" />
      <path
         d="m 111.95313,129.3139 -2.75,0 0,-4.35156 c -1e-5,-0.35416 -0.0143,-0.70703 -0.043,-1.0586 -0.0287,-0.35155 -0.082,-0.61067 -0.16016,-0.77734 -0.0938,-0.19791 -0.22917,-0.33984 -0.40625,-0.42578 -0.17709,-0.0859 -0.41407,-0.1289 -0.71094,-0.12891 -0.22396,1e-5 -0.45052,0.0417 -0.67968,0.125 -0.22918,0.0833 -0.47397,0.21616 -0.73438,0.39844 l 0,6.21875 -2.73437,0 0,-12.15625 2.73437,0 0,4.35156 c 0.44791,-0.3802 0.88411,-0.67707 1.30859,-0.89062 0.42448,-0.21353 0.89453,-0.3203 1.41016,-0.32031 0.89583,10e-6 1.58072,0.28256 2.05469,0.84765 0.47395,0.56511 0.71093,1.38412 0.71094,2.45703 z"
         style="font-size:16px;font-weight:bold;fill:#ffffff;fill-opacity:1;-inkscape-font-specification:Tahoma Bold"
         id="path5077"
         inkscape:connector-curvature="0" />
      <path
         d="m 118.47656,129.54828 c -1.65625,0 -2.92578,-0.39584 -3.80859,-1.1875 -0.88281,-0.79167 -1.32422,-1.91927 -1.32422,-3.38282 0,-1.43228 0.41146,-2.57551 1.23438,-3.42968 0.82291,-0.85416 1.97395,-1.28124 3.45312,-1.28125 1.34374,10e-6 2.35416,0.36198 3.03125,1.08593 0.67707,0.72397 1.01562,1.76043 1.01563,3.10938 l 0,0.98437 -5.99219,0 c 0.026,0.40626 0.11197,0.7461 0.25781,1.01953 0.14583,0.27344 0.33854,0.49089 0.57813,0.65235 0.23437,0.16146 0.5078,0.27734 0.82031,0.34765 0.31249,0.0703 0.65364,0.10548 1.02344,0.10547 0.3177,1e-5 0.6302,-0.0352 0.9375,-0.10547 0.30728,-0.0703 0.58853,-0.16275 0.84375,-0.27734 0.22395,-0.099 0.43098,-0.20573 0.62109,-0.32031 0.19009,-0.11458 0.34504,-0.21614 0.46484,-0.30469 l 0.28907,0 0,2.25781 c -0.22397,0.0885 -0.4284,0.17058 -0.61329,0.2461 -0.1849,0.0755 -0.43881,0.15234 -0.76171,0.23047 -0.29689,0.0781 -0.60288,0.13932 -0.91797,0.18359 -0.31511,0.0443 -0.69923,0.0664 -1.15235,0.0664 z m 0.90625,-5.75 c -0.0156,-0.57812 -0.14974,-1.01823 -0.40234,-1.32032 -0.25261,-0.30207 -0.63933,-0.45311 -1.16016,-0.45312 -0.53125,1e-5 -0.94662,0.15886 -1.24609,0.47656 -0.29948,0.31772 -0.46485,0.75001 -0.49609,1.29688 z"
         style="font-size:16px;font-weight:bold;fill:#ffffff;fill-opacity:1;-inkscape-font-specification:Tahoma Bold"
         id="path5079"
         inkscape:connector-curvature="0" />
      <path
         d="m 138.65625,129.3139 0,-4.38281 c -1e-5,-0.43229 -0.008,-0.79687 -0.0234,-1.09375 -0.0156,-0.29687 -0.0625,-0.53906 -0.14062,-0.72656 -0.0781,-0.1875 -0.19923,-0.32422 -0.36328,-0.41016 -0.16408,-0.0859 -0.39455,-0.1289 -0.69141,-0.12891 -0.20834,1e-5 -0.41407,0.0456 -0.61719,0.13672 -0.20313,0.0911 -0.42449,0.22006 -0.66406,0.38672 l 0,6.21875 -2.75,0 0,-4.38281 c -1e-5,-0.42708 -0.009,-0.79036 -0.0273,-1.08985 -0.0182,-0.29947 -0.0664,-0.54296 -0.14454,-0.73046 -0.0781,-0.1875 -0.19922,-0.32422 -0.36328,-0.41016 -0.16406,-0.0859 -0.39193,-0.1289 -0.68359,-0.12891 -0.22396,1e-5 -0.44271,0.0521 -0.65625,0.15625 -0.21355,0.10418 -0.42188,0.22657 -0.625,0.36719 l 0,6.21875 -2.73438,0 0,-8.77344 2.73438,0 0,0.96875 c 0.44791,-0.3802 0.86979,-0.67707 1.26562,-0.89062 0.39583,-0.21353 0.84114,-0.3203 1.33594,-0.32031 0.53645,10e-6 1.00781,0.12761 1.41406,0.38281 0.40625,0.25522 0.71614,0.63542 0.92969,1.14062 0.52603,-0.48957 1.02213,-0.86587 1.48828,-1.1289 0.46614,-0.26301 0.93879,-0.39452 1.41797,-0.39453 0.40624,10e-6 0.77082,0.0651 1.09375,0.19531 0.32291,0.13022 0.59634,0.32553 0.82031,0.58594 0.24478,0.28125 0.42838,0.61589 0.55079,1.0039 0.12238,0.38803 0.18358,0.89454 0.18359,1.51953 l 0,5.71094 z"
         style="font-size:16px;font-weight:bold;fill:#ffffff;fill-opacity:1;-inkscape-font-specification:Tahoma Bold"
         id="path5081"
         inkscape:connector-curvature="0" />
      <path
         d="m 148.25781,127.02484 0,-1.82813 c -0.46354,0.0469 -0.83854,0.0872 -1.125,0.1211 -0.28646,0.0339 -0.56771,0.10026 -0.84375,0.19922 -0.23958,0.0833 -0.42578,0.20964 -0.55859,0.3789 -0.13282,0.16928 -0.19922,0.39454 -0.19922,0.67578 0,0.41146 0.11067,0.69402 0.33203,0.84766 0.22135,0.15365 0.54817,0.23047 0.98047,0.23047 0.23958,0 0.48437,-0.0547 0.73437,-0.16406 0.25,-0.10938 0.47656,-0.26302 0.67969,-0.46094 z m 0,1.35937 c -0.1875,0.15625 -0.35547,0.29688 -0.5039,0.42188 -0.14845,0.125 -0.34767,0.25 -0.59766,0.375 -0.2448,0.11979 -0.48308,0.21094 -0.71484,0.27344 -0.23178,0.0625 -0.556,0.0937 -0.97266,0.0937 -0.77604,0 -1.42057,-0.26042 -1.93359,-0.78125 -0.51303,-0.52084 -0.76954,-1.17709 -0.76954,-1.96875 0,-0.65104 0.13021,-1.17708 0.39063,-1.57813 0.26042,-0.40104 0.63542,-0.71874 1.125,-0.95312 0.49479,-0.23958 1.08593,-0.40625 1.77344,-0.5 0.68749,-0.0937 1.42708,-0.16666 2.21875,-0.21875 l 0,-0.0469 c -1e-5,-0.48437 -0.17839,-0.819 -0.53516,-1.00391 -0.35677,-0.18488 -0.89193,-0.27733 -1.60547,-0.27734 -0.32292,1e-5 -0.70052,0.0586 -1.13281,0.17578 -0.43229,0.1172 -0.85417,0.26694 -1.26563,0.44922 l -0.23437,0 0,-2.11719 c 0.27083,-0.0781 0.70833,-0.17056 1.3125,-0.27734 0.60416,-0.10676 1.21354,-0.16015 1.82812,-0.16016 1.51042,1e-5 2.61068,0.25131 3.30079,0.75391 0.69009,0.50261 1.03514,1.26954 1.03515,2.30078 l 0,5.96875 -2.71875,0 z"
         style="font-size:16px;font-weight:bold;fill:#ffffff;fill-opacity:1;-inkscape-font-specification:Tahoma Bold"
         id="path5083"
         inkscape:connector-curvature="0" />
      <path
         d="m 158.25781,126.54828 0,-3.97657 c -0.13542,-0.0625 -0.30209,-0.11457 -0.5,-0.15625 -0.19792,-0.0417 -0.39584,-0.0625 -0.59375,-0.0625 -0.65625,1e-5 -1.14974,0.21225 -1.48047,0.63672 -0.33073,0.42449 -0.49609,1.01693 -0.49609,1.77735 0,0.38021 0.0247,0.70182 0.0742,0.96484 0.0495,0.26302 0.14192,0.4961 0.27734,0.69922 0.13021,0.19792 0.30078,0.34766 0.51172,0.44922 0.21093,0.10156 0.48047,0.15234 0.80859,0.15234 0.24479,0 0.48568,-0.0417 0.72266,-0.125 0.23697,-0.0833 0.46223,-0.20312 0.67578,-0.35937 z m 2.73438,1.75781 c -1e-5,0.8125 -0.1172,1.5026 -0.35157,2.07031 -0.23438,0.56771 -0.55469,1.01042 -0.96093,1.32813 -0.40626,0.32291 -0.89324,0.55598 -1.46094,0.69921 -0.56771,0.14323 -1.19792,0.21485 -1.89063,0.21485 -0.58333,0 -1.13672,-0.0378 -1.66015,-0.11328 -0.52344,-0.0755 -0.97787,-0.16277 -1.36328,-0.26172 l 0,-2.19531 0.32031,0 c 0.13541,0.0521 0.29557,0.10937 0.48047,0.17187 0.18489,0.0625 0.37109,0.11979 0.55859,0.17188 0.22396,0.0573 0.44271,0.10416 0.65625,0.14062 0.21354,0.0365 0.43229,0.0547 0.65625,0.0547 0.46354,0 0.85026,-0.0482 1.16016,-0.14453 0.30989,-0.0964 0.54296,-0.23308 0.69922,-0.41016 0.15624,-0.18229 0.26562,-0.39713 0.32812,-0.64453 0.0625,-0.2474 0.0937,-0.55859 0.0937,-0.93359 l 0,-0.16407 c -0.3073,0.27084 -0.66276,0.48829 -1.0664,0.65235 -0.40365,0.16406 -0.81902,0.24609 -1.2461,0.24609 -1.13542,0 -2.01172,-0.36979 -2.6289,-1.10937 -0.61719,-0.73959 -0.92579,-1.86458 -0.92579,-3.375 0,-0.6875 0.0951,-1.30469 0.28516,-1.85157 0.1901,-0.54686 0.45443,-1.01301 0.79297,-1.39843 0.32291,-0.36979 0.71354,-0.65494 1.17187,-0.85547 0.45834,-0.20051 0.9349,-0.30077 1.42969,-0.30078 0.44791,1e-5 0.84896,0.0573 1.20313,0.17187 0.35416,0.11459 0.67707,0.26824 0.96875,0.46094 l 0.10156,-0.39063 2.64844,0 z"
         style="font-size:16px;font-weight:bold;fill:#ffffff;fill-opacity:1;-inkscape-font-specification:Tahoma Bold"
         id="path5085"
         inkscape:connector-curvature="0" />
      <path
         d="m 165.8125,129.3139 -2.73438,0 0,-8.77344 2.73438,0 z m 0.0781,-10.02344 -2.89062,0 0,-2.13281 2.89062,0 z"
         style="font-size:16px;font-weight:bold;fill:#ffffff;fill-opacity:1;-inkscape-font-specification:Tahoma Bold"
         id="path5087"
         inkscape:connector-curvature="0" />
      <path
         d="m 172.22656,129.54828 c -0.72396,0 -1.38672,-0.0911 -1.98828,-0.27344 -0.60156,-0.18229 -1.1237,-0.46354 -1.56641,-0.84375 -0.4375,-0.38021 -0.77864,-0.85807 -1.02343,-1.4336 -0.24479,-0.57551 -0.36719,-1.2539 -0.36719,-2.03515 0,-0.83854 0.13281,-1.55208 0.39844,-2.14063 0.26562,-0.58853 0.625,-1.07291 1.07812,-1.45312 0.4375,-0.36458 0.95182,-0.63411 1.54297,-0.8086 0.59114,-0.17447 1.20703,-0.2617 1.84766,-0.26171 0.48437,10e-6 0.96874,0.056 1.45312,0.16796 0.48437,0.11199 0.97135,0.29038 1.46094,0.53516 l 0,2.34375 -0.35156,0 c -0.10939,-0.10416 -0.2435,-0.21874 -0.40235,-0.34375 -0.15886,-0.12499 -0.33203,-0.23958 -0.51953,-0.34375 -0.19792,-0.10937 -0.42188,-0.20181 -0.67187,-0.27734 -0.25001,-0.0755 -0.52865,-0.11328 -0.83594,-0.11328 -0.69792,0 -1.23829,0.24349 -1.62109,0.73046 -0.38282,0.48699 -0.57423,1.14194 -0.57422,1.96485 -1e-5,0.88021 0.20442,1.53646 0.61328,1.96875 0.40885,0.43229 0.95182,0.64844 1.6289,0.64844 0.34375,0 0.64583,-0.0391 0.90625,-0.11719 0.26042,-0.0781 0.48437,-0.17187 0.67188,-0.28125 0.18228,-0.10937 0.33853,-0.22266 0.46875,-0.33985 0.1302,-0.11718 0.24218,-0.22265 0.33594,-0.3164 l 0.35156,0 0,2.34375 c -0.15626,0.0677 -0.33725,0.14583 -0.54297,0.23437 -0.20574,0.0885 -0.41537,0.16146 -0.62891,0.21875 -0.26563,0.0729 -0.51432,0.12891 -0.74609,0.16797 -0.23178,0.0391 -0.53776,0.0586 -0.91797,0.0586 z"
         style="font-size:16px;font-weight:bold;fill:#ffffff;fill-opacity:1;-inkscape-font-specification:Tahoma Bold"
         id="path5089"
         inkscape:connector-curvature="0" />
      <path
         d="m 179.60937,117.68109 -0.32031,8.28125 -2.46875,0 -0.32031,-8.28125 z m -0.0156,11.63281 -3.07813,0 0,-2.0625 3.07813,0 z"
         style="font-size:16px;font-weight:bold;fill:#ffffff;fill-opacity:1;-inkscape-font-specification:Tahoma Bold"
         id="path5091"
         inkscape:connector-curvature="0" />
    </g>
  </g>
</svg>
