<?xml version="1.0" encoding="UTF-8" standalone="no"?>
<!-- Created with Inkscape (http://www.inkscape.org/) -->

<svg
   xmlns:dc="http://purl.org/dc/elements/1.1/"
   xmlns:cc="http://creativecommons.org/ns#"
   xmlns:rdf="http://www.w3.org/1999/02/22-rdf-syntax-ns#"
   xmlns:svg="http://www.w3.org/2000/svg"
   xmlns="http://www.w3.org/2000/svg"
   xmlns:xlink="http://www.w3.org/1999/xlink"
   xmlns:sodipodi="http://sodipodi.sourceforge.net/DTD/sodipodi-0.dtd"
   xmlns:inkscape="http://www.inkscape.org/namespaces/inkscape"
   width="156.50999"
   height="54.287174"
   id="svg2"
   version="1.1"
   inkscape:version="0.48.0 r9654"
   sodipodi:docname="magicalc.svg"
   inkscape:export-filename="C:\Users\Artur\Desktop\magicalc.png"
   inkscape:export-xdpi="340.09299"
   inkscape:export-ydpi="340.09299">
  <defs
     id="defs4">
    <linearGradient
       id="linearGradient4021">
      <stop
         id="stop4023"
         offset="0"
         style="stop-color:#fbcd3c;stop-opacity:1;" />
      <stop
         id="stop4025"
         offset="1"
         style="stop-color:#f4c222;stop-opacity:1;" />
    </linearGradient>
    <linearGradient
       id="linearGradient3929">
      <stop
         style="stop-color:#319ee6;stop-opacity:1;"
         offset="0"
         id="stop3931" />
      <stop
         style="stop-color:#6bbef4;stop-opacity:1;"
         offset="1"
         id="stop3933" />
    </linearGradient>
    <linearGradient
       id="linearGradient3919">
      <stop
         style="stop-color:#f4c222;stop-opacity:1;"
         offset="0"
         id="stop3921" />
      <stop
         style="stop-color:#f4c222;stop-opacity:0;"
         offset="1"
         id="stop3923" />
    </linearGradient>
    <linearGradient
       id="linearGradient3895">
      <stop
         style="stop-color:#f7d25d;stop-opacity:1;"
         offset="0"
         id="stop3897" />
      <stop
         style="stop-color:#f4c222;stop-opacity:1;"
         offset="1"
         id="stop3899" />
    </linearGradient>
    <radialGradient
       inkscape:collect="always"
       xlink:href="#linearGradient4021"
       id="radialGradient3901"
       cx="110.67939"
       cy="51.793491"
       fx="110.67939"
       fy="51.793491"
       r="3.1960382"
       gradientTransform="matrix(1,0,0,1.0411454,0,-2.1310665)"
       gradientUnits="userSpaceOnUse" />
    <radialGradient
       inkscape:collect="always"
       xlink:href="#linearGradient4021"
       id="radialGradient3909"
       cx="110.67939"
       cy="51.793491"
       fx="110.67939"
       fy="51.793491"
       r="3.1960382"
       gradientTransform="matrix(1,0,0,1.0411454,0,-2.1310665)"
       gradientUnits="userSpaceOnUse" />
    <radialGradient
       inkscape:collect="always"
       xlink:href="#linearGradient4021"
       id="radialGradient3917"
       cx="110.67939"
       cy="51.793491"
       fx="110.67939"
       fy="51.793491"
       r="3.1960382"
       gradientTransform="matrix(1,0,0,1.0411454,0,-2.1310665)"
       gradientUnits="userSpaceOnUse" />
    <radialGradient
       inkscape:collect="always"
       xlink:href="#linearGradient4021"
       id="radialGradient3927"
       cx="110.67939"
       cy="51.793491"
       fx="110.67939"
       fy="51.793491"
       r="3.1960382"
       gradientTransform="matrix(1,0,0,1.0411454,0,-2.1310665)"
       gradientUnits="userSpaceOnUse" />
    <linearGradient
       inkscape:collect="always"
       xlink:href="#linearGradient3929"
       id="linearGradient3943"
       x1="53.792976"
       y1="86.521301"
       x2="53.792976"
       y2="72.626465"
       gradientUnits="userSpaceOnUse" />
    <linearGradient
       inkscape:collect="always"
       xlink:href="#linearGradient3929"
       id="linearGradient3955"
       x1="85.028908"
       y1="86.469322"
       x2="85.110657"
       y2="72.540756"
       gradientUnits="userSpaceOnUse" />
    <linearGradient
       inkscape:collect="always"
       xlink:href="#linearGradient3929"
       id="linearGradient3963"
       x1="105.08516"
       y1="86.469322"
       x2="105.15295"
       y2="72.540756"
       gradientUnits="userSpaceOnUse" />
    <linearGradient
       inkscape:collect="always"
       xlink:href="#linearGradient3929"
       id="linearGradient3971"
       x1="127.53203"
       y1="86.469322"
       x2="127.63306"
       y2="72.540756"
       gradientUnits="userSpaceOnUse" />
    <linearGradient
       inkscape:collect="always"
       xlink:href="#linearGradient3929"
       id="linearGradient3979"
       x1="142.80473"
       y1="256.56448"
       x2="142.71877"
       y2="242.63593"
       gradientUnits="userSpaceOnUse" />
    <linearGradient
       inkscape:collect="always"
       xlink:href="#linearGradient3895"
       id="linearGradient3995"
       x1="161.76521"
       y1="179.61786"
       x2="166.83777"
       y2="185.71748"
       gradientUnits="userSpaceOnUse" />
    <linearGradient
       inkscape:collect="always"
       xlink:href="#linearGradient3895"
       id="linearGradient4019"
       x1="159.32536"
       y1="176.56805"
       x2="164.85541"
       y2="182.51518"
       gradientUnits="userSpaceOnUse" />
    <linearGradient
       inkscape:collect="always"
       xlink:href="#linearGradient3929"
       id="linearGradient3137"
       gradientUnits="userSpaceOnUse"
       x1="142.80473"
       y1="256.56448"
       x2="142.71877"
       y2="242.63593" />
    <linearGradient
       inkscape:collect="always"
       xlink:href="#linearGradient3929"
       id="linearGradient3139"
       gradientUnits="userSpaceOnUse"
       x1="142.80473"
       y1="256.56448"
       x2="142.71877"
       y2="242.63593" />
    <linearGradient
       inkscape:collect="always"
       xlink:href="#linearGradient3929"
       id="linearGradient3141"
       gradientUnits="userSpaceOnUse"
       x1="142.80473"
       y1="256.56448"
       x2="142.71877"
       y2="242.63593" />
    <linearGradient
       inkscape:collect="always"
       xlink:href="#linearGradient3895"
       id="linearGradient3143"
       gradientUnits="userSpaceOnUse"
       x1="161.76521"
       y1="179.61786"
       x2="166.83777"
       y2="185.71748" />
  </defs>
  <sodipodi:namedview
     id="base"
     pagecolor="#ffffff"
     bordercolor="#666666"
     borderopacity="1.0"
     inkscape:pageopacity="0.0"
     inkscape:pageshadow="2"
     inkscape:zoom="7.919596"
     inkscape:cx="73.812815"
     inkscape:cy="22.485208"
     inkscape:document-units="px"
     inkscape:current-layer="flowRoot2985"
     showgrid="false"
     showguides="true"
     inkscape:guide-bbox="true"
     inkscape:window-width="1366"
     inkscape:window-height="716"
     inkscape:window-x="-8"
     inkscape:window-y="-8"
     inkscape:window-maximized="1"
     fit-margin-top="2"
     fit-margin-left="2"
     fit-margin-bottom="2"
     fit-margin-right="2">
    <sodipodi:guide
       orientation="0,1"
       position="128.51925,-82.641898"
       id="guide3779" />
  </sodipodi:namedview>
  <metadata
     id="metadata7">
    <rdf:RDF>
      <cc:Work
         rdf:about="">
        <dc:format>image/svg+xml</dc:format>
        <dc:type
           rdf:resource="http://purl.org/dc/dcmitype/StillImage" />
        <dc:title />
      </cc:Work>
    </rdf:RDF>
  </metadata>
  <g
     inkscape:label="Layer 1"
     inkscape:groupmode="layer"
     id="layer1"
     transform="translate(-51.792976,-54.27806)">
    <g
       style="font-size:18px;font-style:normal;font-variant:normal;font-weight:normal;font-stretch:normal;line-height:125%;letter-spacing:-0.05px;word-spacing:0px;fill:#000000;fill-opacity:1;stroke:none;font-family:Tahoma;-inkscape-font-specification:Tahoma"
       id="flowRoot2985">
      <path
         d="m 77.382812,93.885965 0,-9.861328 c -2.5e-5,-0.972646 -0.0176,-1.792957 -0.05273,-2.460938 -0.03518,-0.667955 -0.140651,-1.212877 -0.316406,-1.634765 -0.175807,-0.421861 -0.448267,-0.729478 -0.817383,-0.922852 -0.369165,-0.193344 -0.887719,-0.290024 -1.555664,-0.290039 -0.468773,1.5e-5 -0.931663,0.102554 -1.388672,0.307617 -0.457052,0.205093 -0.955099,0.495132 -1.494141,0.870117 l 0,13.992188 -6.1875,0 0,-9.861328 c -1.4e-5,-0.960927 -0.02052,-1.778309 -0.06152,-2.452149 -0.04103,-0.673815 -0.149428,-1.221666 -0.325195,-1.643554 -0.175795,-0.421861 -0.448256,-0.729478 -0.817383,-0.922852 -0.369153,-0.193344 -0.881848,-0.290024 -1.538086,-0.290039 -0.503917,1.5e-5 -0.996104,0.117203 -1.476563,0.351563 -0.480478,0.234389 -0.949227,0.509779 -1.40625,0.826171 l 0,13.992188 -6.152343,0 0,-19.740234 6.152343,0 0,2.179687 c 1.007803,-0.85545 1.957021,-1.523418 2.847657,-2.003906 0.890613,-0.480449 1.892565,-0.720683 3.005859,-0.720703 1.207016,2e-5 2.267562,0.287129 3.181641,0.861328 0.914044,0.574237 1.611309,1.429705 2.091797,2.566406 1.183573,-1.101545 2.299782,-1.948223 3.348632,-2.540039 1.048805,-0.591777 2.11228,-0.887675 3.19043,-0.887695 0.914036,2e-5 1.734347,0.146504 2.460938,0.439453 0.726533,0.292988 1.341767,0.732441 1.845703,1.318359 0.55075,0.632831 0.963835,1.385759 1.239258,2.258789 0.275358,0.873062 0.413053,2.01271 0.413085,3.418946 l 0,12.849609 z"
         style="font-size:36px;font-weight:bold;letter-spacing:-1.60000002px;fill:url(#linearGradient3943);fill-opacity:1;-inkscape-font-specification:Tahoma Bold"
         id="path3829"
         inkscape:connector-curvature="0" />
      <path
         d="m 97.38633,88.735574 0,-4.113281 c -1.042981,0.105478 -1.88673,0.196298 -2.53125,0.272461 -0.644542,0.07618 -1.277354,0.225595 -1.898438,0.448242 -0.539071,0.187509 -0.958016,0.471688 -1.256836,0.852539 -0.298835,0.380867 -0.448249,0.887702 -0.448242,1.520508 -7e-6,0.925787 0.249016,1.561528 0.74707,1.907227 0.498039,0.345707 1.23339,0.518558 2.206055,0.518554 0.539052,4e-6 1.089833,-0.123043 1.652344,-0.36914 0.562488,-0.24609 1.072253,-0.591793 1.529297,-1.03711 z m 0,3.058594 c -0.421888,0.351564 -0.799817,0.66797 -1.133789,0.949219 -0.333997,0.281251 -0.782238,0.5625 -1.344727,0.84375 -0.550791,0.269531 -1.086924,0.474609 -1.608398,0.615234 -0.521493,0.140625 -1.250985,0.210937 -2.188477,0.210938 -1.746099,-10e-7 -3.196293,-0.585938 -4.350586,-1.757813 -1.154298,-1.171872 -1.731446,-2.648433 -1.731445,-4.429687 -10e-7,-1.464837 0.292967,-2.64843 0.878906,-3.550782 0.585935,-0.902333 1.429684,-1.617176 2.53125,-2.144531 1.113276,-0.53905 2.443353,-0.91405 3.990234,-1.125 1.546866,-0.210925 3.210926,-0.374987 4.992188,-0.492187 l 0,-0.105469 c -1.3e-5,-1.08983 -0.40138,-1.842759 -1.204102,-2.258789 -0.802745,-0.416 -2.006846,-0.624008 -3.612304,-0.624024 -0.726571,1.6e-5 -1.576179,0.131852 -2.548828,0.395508 -0.972662,0.263687 -1.921879,0.600601 -2.847657,1.010742 l -0.527343,0 0,-4.763671 c 0.609371,-0.175762 1.593745,-0.38377 2.953125,-0.624024 1.359368,-0.240214 2.73046,-0.360331 4.113281,-0.360351 3.398424,2e-5 5.874008,0.565449 7.426762,1.696289 1.55271,1.130876 2.32908,2.856461 2.3291,5.176757 l 0,13.429688 -6.11719,0 z"
         style="font-size:36px;font-weight:bold;letter-spacing:-1.60000002000000000px;fill:url(#linearGradient3955);fill-opacity:1.0;-inkscape-font-specification:Tahoma Bold"
         id="path3831"
         inkscape:connector-curvature="0" />
      <path
         d="m 118.28633,87.663309 0,-8.947266 c -0.3047,-0.14061 -0.6797,-0.257797 -1.125,-0.351562 -0.44533,-0.09373 -0.89064,-0.14061 -1.33594,-0.140625 -1.47657,1.5e-5 -2.58692,0.477554 -3.33105,1.432617 -0.74415,0.955091 -1.11622,2.288098 -1.11622,3.999023 0,0.855478 0.0557,1.57911 0.167,2.170899 0.11132,0.591804 0.31932,1.116217 0.62402,1.573242 0.29296,0.445318 0.67675,0.782232 1.15137,1.010742 0.4746,0.228521 1.08104,0.342779 1.81933,0.342773 0.55077,6e-6 1.09276,-0.09374 1.62598,-0.28125 0.53319,-0.187494 1.04002,-0.457025 1.52051,-0.808593 z m 6.15234,3.955078 c -2e-5,1.828125 -0.26369,3.380858 -0.79101,4.658203 -0.52737,1.27734 -1.24807,2.273433 -2.16211,2.988281 -0.91408,0.726557 -2.00978,1.250969 -3.28711,1.573239 -1.27736,0.32226 -2.69533,0.48339 -4.25391,0.4834 -1.31251,-1e-5 -2.55762,-0.085 -3.73535,-0.25488 -1.17774,-0.16993 -2.2002,-0.36622 -3.06738,-0.58887 l 0,-4.939451 0.7207,0 c 0.30468,0.117185 0.66503,0.246092 1.08105,0.386718 0.41601,0.140623 0.83496,0.269529 1.25684,0.386719 0.5039,0.128904 0.99609,0.234373 1.47656,0.316406 0.48046,0.08203 0.97265,0.123044 1.47656,0.123047 1.04296,-3e-6 1.91308,-0.108401 2.61036,-0.325195 0.69725,-0.216799 1.22166,-0.524416 1.57324,-0.922852 0.35155,-0.410157 0.59764,-0.893555 0.73828,-1.450195 0.14061,-0.55664 0.21092,-1.256835 0.21094,-2.100586 l 0,-0.36914 c -0.69142,0.609376 -1.49123,1.098634 -2.39942,1.467773 -0.90821,0.369141 -1.84278,0.553711 -2.80371,0.553711 -2.55469,0 -4.52637,-0.83203 -5.91504,-2.496094 -1.38867,-1.664058 -2.08301,-4.195305 -2.083,-7.59375 -1e-5,-1.546863 0.21386,-2.935533 0.6416,-4.166015 0.42773,-1.230453 1.02246,-2.279281 1.78418,-3.146485 0.72656,-0.832013 1.60546,-1.473613 2.63672,-1.924805 1.03124,-0.451151 2.1035,-0.676737 3.21679,-0.676757 1.0078,2e-5 1.91015,0.128926 2.70703,0.386718 0.79687,0.257833 1.52343,0.603535 2.17969,1.03711 l 0.22852,-0.878906 5.95898,0 z"
         style="font-size:36px;font-weight:bold;letter-spacing:-1.60000002px;fill:url(#linearGradient3963);fill-opacity:1;-inkscape-font-specification:Tahoma Bold"
         id="path3833"
         inkscape:connector-curvature="0" />
      <path
         d="m 133.68437,93.885965 c 0,2.424432 0.98559,3.422928 1.77208,2.901945 0.72229,-0.478452 0.64865,-0.929654 0.89014,-2.997157 0.15276,-1.30786 6.24318,11.440907 4.56595,10.258667 -3.6015,-2.53864 -7.7243,-1.25082 -10.54323,-3.16876 -2.10365,-1.431285 -2.83728,-4.450301 -2.83728,-6.994695 l 0,-19.740234 6.15234,0 z"
         style="font-size:36px;font-weight:bold;letter-spacing:-1.60000002px;fill:url(#linearGradient3971);fill-opacity:1;-inkscape-font-specification:Tahoma Bold"
         id="path3835"
         inkscape:connector-curvature="0"
         sodipodi:nodetypes="ssssssccs" />
      <path
         sodipodi:type="star"
         style="fill:url(#radialGradient3917);fill-opacity:1;stroke:none"
         id="path3869"
         sodipodi:sides="5"
         sodipodi:cx="110.98214"
         sodipodi:cy="51.826466"
         sodipodi:r1="3.5004101"
         sodipodi:r2="1.8648289"
         sodipodi:arg1="0.65880604"
         sodipodi:arg2="1.2698318"
         inkscape:flatsided="false"
         inkscape:rounded="0"
         inkscape:randomized="0"
         d="m 113.75,53.969323 -2.21505,-0.361851 -1.73547,1.513562 -0.34035,-2.218451 -1.97577,-1.18282 2.0047,-1.009227 0.51438,-2.244584 1.57931,1.594714 2.29368,-0.20441 -1.02862,1.994815 z"
         inkscape:transform-center-x="0.28788566"
         inkscape:transform-center-y="-0.031354165"
         transform="matrix(0.95091926,0,0,0.95091926,21.346792,21.128745)" />
      <path
         transform="matrix(0.69116717,-0.35391272,0.35391272,0.69116717,37.650939,73.371946)"
         inkscape:transform-center-y="0.15496946"
         inkscape:transform-center-x="-0.10771511"
         d="m 113.75,53.969323 -2.21505,-0.361851 -1.73547,1.513562 -0.34035,-2.218451 -1.97577,-1.18282 2.0047,-1.009227 0.51438,-2.244584 1.57931,1.594714 2.29368,-0.20441 -1.02862,1.994815 z"
         inkscape:randomized="0"
         inkscape:rounded="0"
         inkscape:flatsided="false"
         sodipodi:arg2="1.2698318"
         sodipodi:arg1="0.65880604"
         sodipodi:r2="1.8648289"
         sodipodi:r1="3.5004101"
         sodipodi:cy="51.826466"
         sodipodi:cx="110.98214"
         sodipodi:sides="5"
         id="path3871"
         style="fill:url(#radialGradient3927);fill-opacity:1;stroke:none"
         sodipodi:type="star" />
      <path
         transform="matrix(1.2825731,0.13989623,-0.13989623,1.2825731,-5.688201,-18.292149)"
         inkscape:transform-center-y="-0.19354713"
         inkscape:transform-center-x="0.24302376"
         d="m 113.75,53.969323 -2.21505,-0.361851 -1.73547,1.513562 -0.34035,-2.218451 -1.97577,-1.18282 2.0047,-1.009227 0.51438,-2.244584 1.57931,1.594714 2.29368,-0.20441 -1.02862,1.994815 z"
         inkscape:randomized="0"
         inkscape:rounded="0"
         inkscape:flatsided="false"
         sodipodi:arg2="1.2698318"
         sodipodi:arg1="0.65880604"
         sodipodi:r2="1.8648289"
         sodipodi:r1="3.5004101"
         sodipodi:cy="51.826466"
         sodipodi:cx="110.98214"
         sodipodi:sides="5"
         id="path3873"
         style="fill:url(#radialGradient3909);fill-opacity:1;stroke:none"
         sodipodi:type="star" />
      <path
         sodipodi:type="star"
         style="fill:url(#radialGradient3901);fill-opacity:1;stroke:none"
         id="path3875"
         sodipodi:sides="5"
         sodipodi:cx="110.98214"
         sodipodi:cy="51.826466"
         sodipodi:r1="3.5004101"
         sodipodi:r2="1.8648289"
         sodipodi:arg1="0.65880604"
         sodipodi:arg2="1.2698318"
         inkscape:flatsided="false"
         inkscape:rounded="0"
         inkscape:randomized="0"
         d="m 113.75,53.969323 -2.21505,-0.361851 -1.73547,1.513562 -0.34035,-2.218451 -1.97577,-1.18282 2.0047,-1.009227 0.51438,-2.244584 1.57931,1.594714 2.29368,-0.20441 -1.02862,1.994815 z"
         inkscape:transform-center-x="0.11608574"
         inkscape:transform-center-y="0.16505497"
         transform="matrix(0.81188888,-0.17742178,0.17742178,0.81188888,24.972357,36.44592)" />
    </g>
    <g
       transform="translate(5.7557072,-170.09517)"
       style="font-size:18px;font-style:normal;font-variant:normal;font-weight:normal;font-stretch:normal;line-height:125%;letter-spacing:0px;word-spacing:0px;fill:url(#linearGradient3979);fill-opacity:1;stroke:none;font-family:Tahoma;-inkscape-font-specification:Tahoma"
       id="flowRoot2993">
      <path
         d="m 166.08008,258.73557 0,-4.11328 c -1.04298,0.10548 -1.88673,0.1963 -2.53125,0.27246 -0.64454,0.0762 -1.27736,0.2256 -1.89844,0.44825 -0.53907,0.1875 -0.95802,0.47168 -1.25684,0.85254 -0.29883,0.38086 -0.44824,0.8877 -0.44824,1.5205 0,0.92579 0.24902,1.56153 0.74707,1.90723 0.49804,0.34571 1.23339,0.51856 2.20606,0.51855 0.53905,1e-5 1.08983,-0.12304 1.65234,-0.36914 0.56249,-0.24609 1.07225,-0.59179 1.5293,-1.03711 z m 0,3.0586 c -0.42189,0.35156 -0.79982,0.66797 -1.13379,0.94922 -0.334,0.28125 -0.78224,0.5625 -1.34473,0.84375 -0.55079,0.26953 -1.08692,0.47461 -1.6084,0.61523 -0.52149,0.14063 -1.25098,0.21094 -2.18847,0.21094 -1.7461,0 -3.1963,-0.58594 -4.35059,-1.75781 -1.1543,-1.17188 -1.73144,-2.64844 -1.73144,-4.42969 0,-1.46484 0.29296,-2.64843 0.8789,-3.55078 0.58594,-0.90234 1.42969,-1.61718 2.53125,-2.14453 1.11328,-0.53905 2.44336,-0.91405 3.99024,-1.125 1.54686,-0.21093 3.21092,-0.37499 4.99218,-0.49219 l 0,-0.10547 c -1e-5,-1.08983 -0.40138,-1.84276 -1.2041,-2.25879 -0.80274,-0.416 -2.00684,-0.62401 -3.6123,-0.62402 -0.72657,1e-5 -1.57618,0.13185 -2.54883,0.39551 -0.97266,0.26368 -3.57366,1.04703 -4.49944,1.45717 -1.9823,0.75363 -6.76411,2.30822 -10.31977,2.77222 -2.09729,0.28042 2.41685,-2.57944 -0.55924,-1.55205 -3.77338,1.30261 9.08177,-12.262 9.26804,-10.60704 0.24597,2.18525 0.19951,3.45423 1.14885,3.81581 1.64836,0.60087 3.01195,0.11961 4.53968,-0.1515 1.35937,-0.24021 2.73047,-0.47194 4.11329,-0.47196 3.39842,2e-5 5.874,0.56545 7.42675,1.69629 1.55272,1.13088 2.32909,2.85646 2.32911,5.17676 l 0,13.42968 -6.11719,0 z"
         style="font-size:36px;font-weight:bold;letter-spacing:-1.60000002px;fill:url(#linearGradient3137);fill-opacity:1;-inkscape-font-specification:Tahoma Bold"
         id="path3845"
         inkscape:connector-curvature="0"
         sodipodi:nodetypes="cccccsccscccccsssscccscccccssccccsccc" />
      <path
         d="m 181.3375,263.88596 -6.15234,0 0,-27.35156 6.15234,0 z"
         style="font-size:36px;font-weight:bold;letter-spacing:-1.60000002px;fill:url(#linearGradient3139);fill-opacity:1;-inkscape-font-specification:Tahoma Bold"
         id="path3847"
         inkscape:connector-curvature="0" />
      <path
         d="m 194.16914,264.41331 c -1.62892,0 -3.12013,-0.20508 -4.47363,-0.61524 -1.35352,-0.41015 -2.52833,-1.04296 -3.52442,-1.89843 -0.98438,-0.85547 -1.75195,-1.93066 -2.30273,-3.22559 -0.55078,-1.29491 -0.82617,-2.82128 -0.82617,-4.5791 0,-1.88671 0.29882,-3.49217 0.89648,-4.81641 0.59765,-1.3242 1.40625,-2.41404 2.42578,-3.26953 0.98437,-0.82029 2.1416,-1.42674 3.47168,-1.81933 1.33007,-0.39256 2.71581,-0.58885 4.15723,-0.58887 1.08983,2e-5 2.17967,0.126 3.26953,0.37793 1.08983,0.25197 2.18553,0.65334 3.28711,1.2041 l 0,5.27344 -0.79102,0 c -0.24611,-0.23436 -0.54787,-0.49218 -0.90527,-0.77344 -0.35744,-0.28124 -0.74709,-0.53905 -1.16895,-0.77344 -0.44532,-0.24608 -0.94923,-0.45408 -1.51171,-0.62402 -0.56252,-0.16991 -1.18947,-0.25487 -1.88086,-0.25488 -1.57033,1e-5 -2.78615,0.54786 -3.64746,1.64355 -0.86134,1.09572 -1.292,2.56935 -1.292,4.4209 0,1.98048 0.45996,3.45704 1.37989,4.42969 0.91991,0.97266 2.14159,1.45899 3.66504,1.45898 0.77342,1e-5 1.45311,-0.0879 2.03906,-0.26367 0.58592,-0.17578 1.08983,-0.38671 1.51172,-0.63281 0.41014,-0.24609 0.7617,-0.50097 1.05468,-0.76465 0.29296,-0.26367 0.54491,-0.50097 0.75586,-0.71192 l 0.79102,0 0,5.27344 c -0.35158,0.15235 -0.75881,0.32813 -1.22168,0.52735 -0.46291,0.19921 -0.93459,0.36328 -1.41504,0.49218 -0.59767,0.16407 -1.15724,0.29004 -1.67871,0.37793 -0.5215,0.0879 -1.20997,0.13184 -2.06543,0.13184 z"
         style="font-size:36px;font-weight:bold;letter-spacing:-1.60000002px;fill:url(#linearGradient3141);fill-opacity:1;-inkscape-font-specification:Tahoma Bold"
         id="path3849"
         inkscape:connector-curvature="0" />
    </g>
    <g
       id="g3794"
       transform="matrix(0.58551695,0,0,0.58551695,46.707893,-40.250465)">
      <g
         id="g3791"
         style="fill:url(#linearGradient3995);fill-opacity:1;stroke:#ffffff;stroke-width:1.85477126;stroke-miterlimit:4;stroke-opacity:1;stroke-dasharray:none">
        <path
           sodipodi:type="arc"
           style="fill:url(#linearGradient3143);fill-opacity:1;stroke:#ffffff;stroke-width:1.85477126;stroke-linecap:square;stroke-linejoin:round;stroke-miterlimit:4;stroke-opacity:1;stroke-dasharray:none;stroke-dashoffset:0"
           id="path3001"
           sodipodi:cx="172.231"
           sodipodi:cy="191.20714"
           sodipodi:rx="18.687822"
           sodipodi:ry="18.687822"
           d="m 190.91883,191.20714 c 0,10.321 -8.36683,18.68782 -18.68783,18.68782 -10.321,0 -18.68782,-8.36682 -18.68782,-18.68782 0,-10.321 8.36682,-18.68782 18.68782,-18.68782 10.321,0 18.68783,8.36682 18.68783,18.68782 z" />
      </g>
      <g
         transform="translate(-3.4615671,-12.785173)"
         style="font-size:18px;font-style:normal;font-variant:normal;font-weight:normal;font-stretch:normal;line-height:125%;letter-spacing:0px;word-spacing:0px;opacity:0.23999999;fill:#ffffff;fill-opacity:1;stroke:none;font-family:Tahoma;-inkscape-font-specification:Tahoma"
         id="flowRoot3003">
        <path
           d="m 185.96094,204.11839 c -2e-5,3.2461 -0.88772,5.80371 -2.66309,7.67285 -1.77541,1.86914 -4.28615,2.80371 -7.53223,2.80371 -3.22266,0 -5.72754,-0.93457 -7.51464,-2.80371 -1.78711,-1.86914 -2.68067,-4.42675 -2.68067,-7.67285 0,-3.28124 0.89356,-5.85057 2.68067,-7.70801 1.7871,-1.8574 4.29198,-2.78611 7.51464,-2.78613 3.23437,2e-5 5.74218,0.93459 7.52344,2.80371 1.78123,1.86915 2.67186,4.43263 2.67188,7.69043 z m -6.31055,0.0351 c -10e-6,-1.17186 -0.0967,-2.14745 -0.29004,-2.92675 -0.19337,-0.77929 -0.45997,-1.40331 -0.7998,-1.87208 -0.3633,-0.49217 -0.77345,-0.83494 -1.23047,-1.02832 -0.45705,-0.19334 -0.97853,-0.29002 -1.56446,-0.29003 -0.55079,1e-5 -1.04883,0.085 -1.49414,0.25488 -0.44532,0.16994 -0.85547,0.49513 -1.23046,0.97558 -0.35157,0.45705 -0.63282,1.084 -0.84375,1.88086 -0.21095,0.79689 -0.31642,1.79884 -0.31641,3.00586 -1e-5,1.20704 0.0996,2.18263 0.29883,2.92676 0.19921,0.74415 0.45702,1.33887 0.77343,1.78418 0.32812,0.45704 0.73828,0.79102 1.23047,1.00195 0.49218,0.21095 1.0371,0.31641 1.63477,0.31641 0.49218,0 0.99315,-0.10546 1.50293,-0.31641 0.50975,-0.21093 0.91698,-0.52734 1.22168,-0.94922 0.36327,-0.5039 0.63866,-1.11034 0.82617,-1.81933 0.18749,-0.70898 0.28124,-1.69042 0.28125,-2.94434 z"
           style="font-size:36px;font-weight:bold;fill:#ffffff;-inkscape-font-specification:Tahoma Bold"
           id="path3830" />
      </g>
      <g
         transform="translate(0.44642857,-14.107143)"
         style="font-size:18px;font-style:normal;font-variant:normal;font-weight:normal;font-stretch:normal;line-height:125%;letter-spacing:0px;word-spacing:0px;fill:#ffffff;fill-opacity:1;stroke:none;font-family:Tahoma;-inkscape-font-specification:Tahoma"
         id="flowRoot3783">
        <path
           d="m 172.85352,215.85081 c -1.62892,0 -3.12013,-0.20508 -4.47364,-0.61524 -1.35352,-0.41015 -2.52832,-1.04296 -3.52441,-1.89843 -0.98438,-0.85547 -1.75196,-1.93066 -2.30274,-3.22559 -0.55078,-1.29491 -0.82617,-2.82128 -0.82617,-4.5791 0,-1.88671 0.29883,-3.49217 0.89649,-4.81641 0.59765,-1.3242 1.40624,-2.41404 2.42578,-3.26953 0.98437,-0.82029 2.14159,-1.42674 3.47168,-1.81933 1.33007,-0.39256 2.71581,-0.58885 4.15722,-0.58887 1.08984,2e-5 2.17968,0.126 3.26954,0.37793 1.08982,0.25197 2.18553,0.65334 3.2871,1.2041 l 0,5.27344 -0.79101,0 c -0.24611,-0.23436 -0.54787,-0.49218 -0.90527,-0.77344 -0.35744,-0.28124 -0.74709,-0.53905 -1.16895,-0.77344 -0.44533,-0.24608 -0.94923,-0.45408 -1.51172,-0.62402 -0.56251,-0.16991 -1.18946,-0.25487 -1.88086,-0.25488 -1.57032,1e-5 -2.78614,0.54786 -3.64746,1.64355 -0.86133,1.09572 -1.292,2.56935 -1.29199,4.4209 -1e-5,1.98048 0.45995,3.45704 1.37988,4.42969 0.91991,0.97266 2.14159,1.45899 3.66504,1.45898 0.77343,1e-5 1.45311,-0.0879 2.03906,-0.26367 0.58593,-0.17578 1.08983,-0.38671 1.51172,-0.63281 0.41014,-0.24609 0.7617,-0.50097 1.05469,-0.76465 0.29295,-0.26367 0.5449,-0.50097 0.75586,-0.71192 l 0.79101,0 0,5.27344 c -0.35158,0.15235 -0.7588,0.32813 -1.22167,0.52735 -0.46291,0.19921 -0.93459,0.36328 -1.41504,0.49218 -0.59768,0.16407 -1.15724,0.29004 -1.67871,0.37793 -0.5215,0.0879 -1.20998,0.13184 -2.06543,0.13184 z"
           style="font-size:36px;font-weight:bold;-inkscape-font-specification:Tahoma Bold;fill:#ffffff"
           id="path3059" />
      </g>
    </g>
    <g
       transform="matrix(0.58551695,0,0,0.58551695,46.324648,-16.874822)"
       id="g3806">
      <g
         id="g3808"
         style="fill:#f4c222;fill-opacity:1;stroke:#ffffff;stroke-width:1.85477126;stroke-miterlimit:4;stroke-opacity:1;stroke-dasharray:none">
        <path
           d="m 190.91883,191.20714 c 0,10.321 -8.36683,18.68782 -18.68783,18.68782 -10.321,0 -18.68782,-8.36682 -18.68782,-18.68782 0,-10.321 8.36682,-18.68782 18.68782,-18.68782 10.321,0 18.68783,8.36682 18.68783,18.68782 z"
           sodipodi:ry="18.687822"
           sodipodi:rx="18.687822"
           sodipodi:cy="191.20714"
           sodipodi:cx="172.231"
           id="path3810"
           style="fill:url(#linearGradient4019);fill-opacity:1;stroke:#ffffff;stroke-width:1.85477126;stroke-linecap:square;stroke-linejoin:round;stroke-miterlimit:4;stroke-opacity:1;stroke-dasharray:none;stroke-dashoffset:0"
           sodipodi:type="arc" />
      </g>
      <g
         transform="translate(-3.4615671,-12.785173)"
         style="font-size:18px;font-style:normal;font-variant:normal;font-weight:normal;font-stretch:normal;line-height:125%;letter-spacing:0px;word-spacing:0px;opacity:0.23999999;fill:#ffffff;fill-opacity:1;stroke:none;font-family:Tahoma;-inkscape-font-specification:Tahoma"
         id="flowRoot3812">
        <path
           d="m 185.96094,204.11839 c -2e-5,3.2461 -0.88772,5.80371 -2.66309,7.67285 -1.77541,1.86914 -4.28615,2.80371 -7.53223,2.80371 -3.22266,0 -5.72754,-0.93457 -7.51464,-2.80371 -1.78711,-1.86914 -2.68067,-4.42675 -2.68067,-7.67285 0,-3.28124 0.89356,-5.85057 2.68067,-7.70801 1.7871,-1.8574 4.29198,-2.78611 7.51464,-2.78613 3.23437,2e-5 5.74218,0.93459 7.52344,2.80371 1.78123,1.86915 2.67186,4.43263 2.67188,7.69043 z m -6.31055,0.0351 c -10e-6,-1.17186 -0.0967,-2.14745 -0.29004,-2.92675 -0.19337,-0.77929 -0.45997,-1.40331 -0.7998,-1.87208 -0.3633,-0.49217 -0.77345,-0.83494 -1.23047,-1.02832 -0.45705,-0.19334 -0.97853,-0.29002 -1.56446,-0.29003 -0.55079,1e-5 -1.04883,0.085 -1.49414,0.25488 -0.44532,0.16994 -0.85547,0.49513 -1.23046,0.97558 -0.35157,0.45705 -0.63282,1.084 -0.84375,1.88086 -0.21095,0.79689 -0.31642,1.79884 -0.31641,3.00586 -1e-5,1.20704 0.0996,2.18263 0.29883,2.92676 0.19921,0.74415 0.45702,1.33887 0.77343,1.78418 0.32812,0.45704 0.73828,0.79102 1.23047,1.00195 0.49218,0.21095 1.0371,0.31641 1.63477,0.31641 0.49218,0 0.99315,-0.10546 1.50293,-0.31641 0.50975,-0.21093 0.91698,-0.52734 1.22168,-0.94922 0.36327,-0.5039 0.63866,-1.11034 0.82617,-1.81933 0.18749,-0.70898 0.28124,-1.69042 0.28125,-2.94434 z"
           style="font-size:36px;font-weight:bold;fill:#ffffff;-inkscape-font-specification:Tahoma Bold"
           id="path3837" />
      </g>
      <g
         transform="translate(0.44642857,-14.107143)"
         style="font-size:18px;font-style:normal;font-variant:normal;font-weight:normal;font-stretch:normal;line-height:125%;letter-spacing:0px;word-spacing:0px;fill:#ffffff;fill-opacity:1;stroke:none;font-family:Tahoma;-inkscape-font-specification:Tahoma"
         id="flowRoot3820">
        <path
           d="m 172.85352,215.85081 c -1.62892,0 -3.12013,-0.20508 -4.47364,-0.61524 -1.35352,-0.41015 -2.52832,-1.04296 -3.52441,-1.89843 -0.98438,-0.85547 -1.75196,-1.93066 -2.30274,-3.22559 -0.55078,-1.29491 -0.82617,-2.82128 -0.82617,-4.5791 0,-1.88671 0.29883,-3.49217 0.89649,-4.81641 0.59765,-1.3242 1.40624,-2.41404 2.42578,-3.26953 0.98437,-0.82029 2.14159,-1.42674 3.47168,-1.81933 1.33007,-0.39256 2.71581,-0.58885 4.15722,-0.58887 1.08984,2e-5 2.17968,0.126 3.26954,0.37793 1.08982,0.25197 2.18553,0.65334 3.2871,1.2041 l 0,5.27344 -0.79101,0 c -0.24611,-0.23436 -0.54787,-0.49218 -0.90527,-0.77344 -0.35744,-0.28124 -0.74709,-0.53905 -1.16895,-0.77344 -0.44533,-0.24608 -0.94923,-0.45408 -1.51172,-0.62402 -0.56251,-0.16991 -1.18946,-0.25487 -1.88086,-0.25488 -1.57032,1e-5 -2.78614,0.54786 -3.64746,1.64355 -0.86133,1.09572 -1.292,2.56935 -1.29199,4.4209 -1e-5,1.98048 0.45995,3.45704 1.37988,4.42969 0.91991,0.97266 2.14159,1.45899 3.66504,1.45898 0.77343,1e-5 1.45311,-0.0879 2.03906,-0.26367 0.58593,-0.17578 1.08983,-0.38671 1.51172,-0.63281 0.41014,-0.24609 0.7617,-0.50097 1.05469,-0.76465 0.29295,-0.26367 0.5449,-0.50097 0.75586,-0.71192 l 0.79101,0 0,5.27344 c -0.35158,0.15235 -0.7588,0.32813 -1.22167,0.52735 -0.46291,0.19921 -0.93459,0.36328 -1.41504,0.49218 -0.59768,0.16407 -1.15724,0.29004 -1.67871,0.37793 -0.5215,0.0879 -1.20998,0.13184 -2.06543,0.13184 z"
           style="font-size:36px;font-weight:bold;-inkscape-font-specification:Tahoma Bold;fill:#ffffff;fill-opacity:1"
           id="path3834" />
      </g>
    </g>
    <flowRoot
       xml:space="preserve"
       id="flowRoot3853"
       style="font-size:32px;font-style:normal;font-variant:normal;font-weight:normal;font-stretch:normal;line-height:125%;letter-spacing:0px;word-spacing:0px;fill:#000000;fill-opacity:1;stroke:none;font-family:Tahoma;-inkscape-font-specification:Tahoma"><flowRegion
         id="flowRegion3855"><rect
           id="rect3857"
           width="175.35715"
           height="40.714287"
           x="26.428572"
           y="9.1478949"
           style="font-size:32px" /></flowRegion><flowPara
         id="flowPara3859"
         style="font-size:32px;font-style:normal;font-variant:normal;font-weight:bold;font-stretch:normal;font-family:Bell Gothic Std Light;-inkscape-font-specification:Bell Gothic Std Light" /></flowRoot>  </g>
</svg>
